<?xml version="1.0" encoding="UTF-8" standalone="no"?>
<!-- Created with Inkscape (http://www.inkscape.org/) -->

<svg
   width="1080"
   height="1080"
   viewBox="0 0 1080 1080"
   version="1.1"
   id="svg1"
   inkscape:version="1.4.2 (f4327f4, 2025-05-13)"
   sodipodi:docname="favicon.svg"
   inkscape:export-filename="2025 Logo.webp"
   inkscape:export-xdpi="300"
   inkscape:export-ydpi="300"
   xmlns:inkscape="http://www.inkscape.org/namespaces/inkscape"
   xmlns:sodipodi="http://sodipodi.sourceforge.net/DTD/sodipodi-0.dtd"
   xmlns="http://www.w3.org/2000/svg"
   xmlns:svg="http://www.w3.org/2000/svg">
  <sodipodi:namedview
     id="namedview1"
     pagecolor="#ffffff"
     bordercolor="#000000"
     borderopacity="0.25"
     inkscape:showpageshadow="2"
     inkscape:pageopacity="0.0"
     inkscape:pagecheckerboard="0"
     inkscape:deskcolor="#d1d1d1"
     inkscape:document-units="px"
     inkscape:zoom="0.76930599"
     inkscape:cx="323.66835"
     inkscape:cy="460.80494"
     inkscape:window-width="2560"
     inkscape:window-height="1377"
     inkscape:window-x="2552"
     inkscape:window-y="-8"
     inkscape:window-maximized="1"
     inkscape:current-layer="layer1" />
  <defs
     id="defs1" />
  <g
     inkscape:label="Layer 1"
     inkscape:groupmode="layer"
     id="layer1">
    <rect
       style="fill:#e0d300;fill-opacity:1;stroke:#e0d300;stroke-width:10.2173;stroke-dasharray:none;stroke-opacity:1"
       id="rect196"
       width="1069.7827"
       height="1069.7769"
       x="5.1086426"
       y="5.1115723" />
    <g
       id="Festival"
       transform="matrix(3.7795276,0,0,3.7795276,-1066.244,167.64242)">
      <path
         style="font-weight:100;font-size:50.8px;font-family:Blippo-Heavy;-inkscape-font-specification:'Blippo-Heavy Thin';text-align:center;text-anchor:middle;fill:none;stroke:#000000;stroke-width:3.70417;stroke-dasharray:none;stroke-opacity:1"
         d="m 507.28172,129.45661 v 33.8836 h -9.2964 v -33.8836 z"
         id="path175" />
      <path
         style="font-weight:100;font-size:50.8px;font-family:Blippo-Heavy;-inkscape-font-specification:'Blippo-Heavy Thin';text-align:center;text-anchor:middle;fill:none;stroke:#000000;stroke-width:3.70417;stroke-dasharray:none;stroke-opacity:1"
         d="m 481.93256,154.09461 v 9.5504 q -0.6096,0.1016 -1.2192,0.1524 -0.6096,0.0508 -1.2192,0.0508 -5.3848,0 -9.0424,-3.9624 -3.6576,-4.0132 -3.6576,-9.2456 0,-5.2324 3.8608,-8.8392 3.9116,-3.6576 8.9916,-3.6576 5.2832,0 9.0932,3.7592 3.8608,3.7592 3.8608,9.0424 v 12.3952 h -9.4996 v -11.43 q 0,-1.4732 -0.9144,-2.6924 -0.8636,-1.2192 -2.54,-1.2192 -1.3716,0 -2.4892,1.016 -1.0668,0.9652 -1.0668,2.3876 0,1.4224 0.9652,2.4384 0.9652,1.016 2.3876,1.1176 0.7112,0 1.3208,-0.2032 0.6096,-0.2032 1.1684,-0.6096 z"
         id="path176" />
      <path
         style="font-weight:100;font-size:50.8px;font-family:Blippo-Heavy;-inkscape-font-specification:'Blippo-Heavy Thin';text-align:center;text-anchor:middle;fill:none;stroke:#000000;stroke-width:3.70417;stroke-dasharray:none;stroke-opacity:1"
         d="m 466.79413,138.60061 -11.5316,25.7048 -11.43,-25.7048 h 8.8392 l 2.6416,6.7056 2.8956,-6.7056 z"
         id="path177" />
      <path
         style="font-weight:100;font-size:50.8px;font-family:Blippo-Heavy;-inkscape-font-specification:'Blippo-Heavy Thin';text-align:center;text-anchor:middle;fill:none;stroke:#000000;stroke-width:3.70417;stroke-dasharray:none;stroke-opacity:1"
         d="m 437.78728,127.62781 q 1.8288,0.0508 3.2004,1.3716 1.4224,1.27 1.4224,3.0988 0,1.9812 -1.3716,3.2004 -1.3208,1.2192 -3.2512,1.2192 -1.9304,0 -3.302,-1.2192 -1.3208,-1.2192 -1.3208,-3.2004 0,-1.8288 1.4224,-3.0988 1.4224,-1.3208 3.2004,-1.3208 z"
         id="path178" />
      <path
         style="font-weight:100;font-size:50.8px;font-family:Blippo-Heavy;-inkscape-font-specification:'Blippo-Heavy Thin';text-align:center;text-anchor:middle;fill:none;stroke:#000000;stroke-width:3.70417;stroke-dasharray:none;stroke-opacity:1"
         d="m 442.41008,138.60061 v 24.7396 h -9.2964 v -24.7396 z"
         id="path179" />
      <path
         style="font-weight:100;font-size:50.8px;font-family:Blippo-Heavy;-inkscape-font-specification:'Blippo-Heavy Thin';text-align:center;text-anchor:middle;fill:none;stroke:#000000;stroke-width:3.70417;stroke-dasharray:none;stroke-opacity:1"
         d="m 424.02047,129.10101 v 9.4996 h 4.1656 v 9.7536 h -4.1656 q 0,2.3876 0.8636,3.81 0.9144,1.4224 3.5052,1.4224 v 9.7536 q -5.842,0 -9.7536,-3.6068 -3.8608,-3.6576 -3.8608,-9.6012 v -21.0312 z"
         id="path180" />
      <path
         style="font-weight:100;font-size:50.8px;font-family:Blippo-Heavy;-inkscape-font-specification:'Blippo-Heavy Thin';text-align:center;text-anchor:middle;fill:none;stroke:#000000;stroke-width:3.70417;stroke-dasharray:none;stroke-opacity:1"
         d="m 411.37128,138.95621 v 9.7536 q -1.9304,0.1016 -2.6924,0.9652 -0.762,0.8128 -0.9144,2.7432 -0.3556,5.2324 -3.4544,8.382 -3.0988,3.1496 -8.4836,3.2004 h -2.286 v -9.8044 q 2.2352,0.0508 3.4036,-0.8128 1.2192,-0.9144 1.3208,-3.3528 0.2032,-5.1308 2.4892,-8.0772 2.286,-2.9464 7.8232,-2.9464 z"
         id="path181" />
      <path
         style="font-weight:100;font-size:50.8px;font-family:Blippo-Heavy;-inkscape-font-specification:'Blippo-Heavy Thin';text-align:center;text-anchor:middle;fill:none;stroke:#000000;stroke-width:3.70417;stroke-dasharray:none;stroke-opacity:1"
         d="m 391.45768,152.46901 h -14.5288 q -0.1016,-0.4064 -0.2032,-0.8636 -0.1016,-0.4572 -0.1016,-0.9144 0,-0.7112 0.1016,-1.3208 0.1524,-0.6096 0.3556,-1.2192 l 5.08,-0.0508 q -0.2032,-1.1684 -1.0668,-1.9304 -0.8636,-0.762 -2.1336,-0.762 -1.8288,0 -2.794,1.3208 -0.9652,1.3208 -1.2192,2.8956 0,0.254 -0.0508,0.508 0,0.254 0,0.508 0,0.3048 0,0.6096 0.0508,0.3048 0.1016,0.6604 0.254,1.524 1.1684,2.8448 0.9652,1.27 2.6924,1.27 0.9144,0 1.5748,-0.3556 0.6604,-0.4064 1.2192,-1.016 l 5.334,6.2992 q -1.7272,1.4224 -3.8608,2.1844 -2.1336,0.7112 -4.3688,0.7112 -5.4356,0 -9.2456,-3.8608 -3.7592,-3.8608 -3.7592,-9.2456 0,-5.1308 3.8608,-8.8392 3.9116,-3.7592 8.9916,-3.7592 5.1816,0 9.0424,3.7084 3.8608,3.7084 3.8608,8.9408 0,0.2032 0,0.4064 0,0.2032 0,0.4572 -0.0508,0.2032 -0.0508,0.4064 0,0.2032 0,0.4572 z"
         id="path182" />
      <path
         style="font-weight:100;font-size:50.8px;font-family:Blippo-Heavy;-inkscape-font-specification:'Blippo-Heavy Thin';text-align:center;text-anchor:middle;fill:none;stroke:#000000;stroke-width:3.70417;stroke-dasharray:none;stroke-opacity:1"
         d="m 356.10091,145.40781 v 9.0932 h -3.4036 v 8.8392 h -10.0076 v -21.6916 q 0,-5.1816 3.7592,-9.0424 3.81,-3.9116 9.0932,-3.9116 3.1496,0 5.7404,1.4224 2.6416,1.4224 4.5212,3.8608 l -8.2804,5.9944 q -0.3048,-0.762 -0.8636,-1.3208 -0.508,-0.5588 -1.3716,-0.5588 -1.27,0 -1.9304,0.8128 -0.6604,0.8128 -0.6604,2.032 v 4.4704 z"
         id="path183" />
      <path
         style="font-weight:100;font-size:50.8px;font-family:Blippo-Heavy;-inkscape-font-specification:'Blippo-Heavy Thin';text-align:center;text-anchor:middle;fill:none;stroke:#ffffff;stroke-width:1.32292;stroke-dasharray:none"
         d="m 507.28172,129.45661 v 33.8836 h -9.2964 v -33.8836 z"
         id="path152" />
      <path
         style="font-weight:100;font-size:50.8px;font-family:Blippo-Heavy;-inkscape-font-specification:'Blippo-Heavy Thin';text-align:center;text-anchor:middle;fill:none;stroke:#ffffff;stroke-width:1.32292;stroke-dasharray:none"
         d="m 481.93256,154.09461 v 9.5504 q -0.6096,0.1016 -1.2192,0.1524 -0.6096,0.0508 -1.2192,0.0508 -5.3848,0 -9.0424,-3.9624 -3.6576,-4.0132 -3.6576,-9.2456 0,-5.2324 3.8608,-8.8392 3.9116,-3.6576 8.9916,-3.6576 5.2832,0 9.0932,3.7592 3.8608,3.7592 3.8608,9.0424 v 12.3952 h -9.4996 v -11.43 q 0,-1.4732 -0.9144,-2.6924 -0.8636,-1.2192 -2.54,-1.2192 -1.3716,0 -2.4892,1.016 -1.0668,0.9652 -1.0668,2.3876 0,1.4224 0.9652,2.4384 0.9652,1.016 2.3876,1.1176 0.7112,0 1.3208,-0.2032 0.6096,-0.2032 1.1684,-0.6096 z"
         id="path151" />
      <path
         style="font-weight:100;font-size:50.8px;font-family:Blippo-Heavy;-inkscape-font-specification:'Blippo-Heavy Thin';text-align:center;text-anchor:middle;fill:none;stroke:#ffffff;stroke-width:1.32292;stroke-dasharray:none"
         d="m 466.79413,138.60061 -11.5316,25.7048 -11.43,-25.7048 h 8.8392 l 2.6416,6.7056 2.8956,-6.7056 z"
         id="path150" />
      <path
         style="font-weight:100;font-size:50.8px;font-family:Blippo-Heavy;-inkscape-font-specification:'Blippo-Heavy Thin';text-align:center;text-anchor:middle;fill:none;stroke:#ffffff;stroke-width:1.32292;stroke-dasharray:none"
         d="m 437.78728,127.62781 q 1.8288,0.0508 3.2004,1.3716 1.4224,1.27 1.4224,3.0988 0,1.9812 -1.3716,3.2004 -1.3208,1.2192 -3.2512,1.2192 -1.9304,0 -3.302,-1.2192 -1.3208,-1.2192 -1.3208,-3.2004 0,-1.8288 1.4224,-3.0988 1.4224,-1.3208 3.2004,-1.3208 z"
         id="path149" />
      <path
         style="font-weight:100;font-size:50.8px;font-family:Blippo-Heavy;-inkscape-font-specification:'Blippo-Heavy Thin';text-align:center;text-anchor:middle;fill:none;stroke:#ffffff;stroke-width:1.32292;stroke-dasharray:none"
         d="m 442.41008,138.60061 v 24.7396 h -9.2964 v -24.7396 z"
         id="path148" />
      <path
         style="font-weight:100;font-size:50.8px;font-family:Blippo-Heavy;-inkscape-font-specification:'Blippo-Heavy Thin';text-align:center;text-anchor:middle;fill:none;stroke:#ffffff;stroke-width:1.32292;stroke-dasharray:none"
         d="m 424.02047,129.10101 v 9.4996 h 4.1656 v 9.7536 h -4.1656 q 0,2.3876 0.8636,3.81 0.9144,1.4224 3.5052,1.4224 v 9.7536 q -5.842,0 -9.7536,-3.6068 -3.8608,-3.6576 -3.8608,-9.6012 v -21.0312 z"
         id="path147" />
      <path
         style="font-weight:100;font-size:50.8px;font-family:Blippo-Heavy;-inkscape-font-specification:'Blippo-Heavy Thin';text-align:center;text-anchor:middle;fill:none;stroke:#ffffff;stroke-width:1.32292;stroke-dasharray:none"
         d="m 411.37128,138.95621 v 9.7536 q -1.9304,0.1016 -2.6924,0.9652 -0.762,0.8128 -0.9144,2.7432 -0.3556,5.2324 -3.4544,8.382 -3.0988,3.1496 -8.4836,3.2004 h -2.286 v -9.8044 q 2.2352,0.0508 3.4036,-0.8128 1.2192,-0.9144 1.3208,-3.3528 0.2032,-5.1308 2.4892,-8.0772 2.286,-2.9464 7.8232,-2.9464 z"
         id="path146" />
      <path
         style="font-weight:100;font-size:50.8px;font-family:Blippo-Heavy;-inkscape-font-specification:'Blippo-Heavy Thin';text-align:center;text-anchor:middle;fill:none;stroke:#ffffff;stroke-width:1.32292;stroke-dasharray:none"
         d="m 391.45768,152.46901 h -14.5288 q -0.1016,-0.4064 -0.2032,-0.8636 -0.1016,-0.4572 -0.1016,-0.9144 0,-0.7112 0.1016,-1.3208 0.1524,-0.6096 0.3556,-1.2192 l 5.08,-0.0508 q -0.2032,-1.1684 -1.0668,-1.9304 -0.8636,-0.762 -2.1336,-0.762 -1.8288,0 -2.794,1.3208 -0.9652,1.3208 -1.2192,2.8956 0,0.254 -0.0508,0.508 0,0.254 0,0.508 0,0.3048 0,0.6096 0.0508,0.3048 0.1016,0.6604 0.254,1.524 1.1684,2.8448 0.9652,1.27 2.6924,1.27 0.9144,0 1.5748,-0.3556 0.6604,-0.4064 1.2192,-1.016 l 5.334,6.2992 q -1.7272,1.4224 -3.8608,2.1844 -2.1336,0.7112 -4.3688,0.7112 -5.4356,0 -9.2456,-3.8608 -3.7592,-3.8608 -3.7592,-9.2456 0,-5.1308 3.8608,-8.8392 3.9116,-3.7592 8.9916,-3.7592 5.1816,0 9.0424,3.7084 3.8608,3.7084 3.8608,8.9408 0,0.2032 0,0.4064 0,0.2032 0,0.4572 -0.0508,0.2032 -0.0508,0.4064 0,0.2032 0,0.4572 z"
         id="path145" />
      <path
         style="font-weight:100;font-size:50.8px;font-family:Blippo-Heavy;-inkscape-font-specification:'Blippo-Heavy Thin';text-align:center;text-anchor:middle;fill:none;stroke:#ffffff;stroke-width:1.32292;stroke-dasharray:none"
         d="m 356.10091,145.40781 v 9.0932 h -3.4036 v 8.8392 h -10.0076 v -21.6916 q 0,-5.1816 3.7592,-9.0424 3.81,-3.9116 9.0932,-3.9116 3.1496,0 5.7404,1.4224 2.6416,1.4224 4.5212,3.8608 l -8.2804,5.9944 q -0.3048,-0.762 -0.8636,-1.3208 -0.508,-0.5588 -1.3716,-0.5588 -1.27,0 -1.9304,0.8128 -0.6604,0.8128 -0.6604,2.032 v 4.4704 z"
         id="path144" />
      <path
         id="path153"
         style="font-weight:100;font-size:50.8px;font-family:Blippo-Heavy;-inkscape-font-specification:'Blippo-Heavy Thin';text-align:center;text-anchor:middle;stroke:none;stroke-width:1.00013;stroke-dasharray:none"
         d="m 499.04297,162.28125 c 2.39323,0 4.78646,0 7.17969,0 0,-10.58854 0,-21.17708 0,-31.76563 -2.39323,10e-6 -4.78646,0 -7.17969,0 0,10.58855 0,21.17709 0,31.76563 z" />
      <path
         id="path154"
         style="font-weight:100;font-size:50.8px;font-family:Blippo-Heavy;-inkscape-font-specification:'Blippo-Heavy Thin';text-align:center;text-anchor:middle;stroke:none;stroke-width:1.00013;stroke-dasharray:none"
         d="m 479.03906,139.2168 c -4.61758,0.19782 -8.97625,3.38014 -10.57812,7.71289 -1.12478,3.21903 -0.66657,6.89235 1.00586,9.83984 0.57337,1.03896 1.46223,2.16594 2.39677,3.04196 2.3585,2.31611 5.8134,3.28301 9.05831,2.91898 -0.12453,-2.27344 0.005,-4.63733 -0.0645,-6.88477 -2.40266,0.7178 -5.18744,-0.8902 -5.70639,-3.35757 -0.49687,-1.94871 0.51411,-4.11373 2.31958,-4.99581 1.99339,-1.14122 4.91205,-0.47592 5.94257,1.66058 1.15756,1.91993 0.62761,4.2389 0.74698,6.35726 0,2.25703 0,4.51406 0,6.77109 2.46028,0 4.92057,0 7.38086,0 -0.0366,-4.28116 0.0875,-8.5681 -0.084,-12.8454 -0.67217,-5.57591 -5.8735,-10.21295 -11.49577,-10.22647 -0.30719,-0.0155 -0.61483,0.006 -0.92217,0.007 z" />
      <path
         id="path155"
         style="font-weight:100;font-size:50.8px;font-family:Blippo-Heavy;-inkscape-font-specification:'Blippo-Heavy Thin';text-align:center;text-anchor:middle;stroke:none;stroke-width:1.00013;stroke-dasharray:none"
         d="m 455.26562,161.70703 c 3.29883,-7.34896 6.59766,-14.69792 9.89649,-22.04687 -2.08594,0 -4.17188,0 -6.25781,0 -1.21304,2.80657 -2.42437,5.61389 -3.63868,8.41992 -1.10284,-2.80716 -2.20846,-5.61323 -3.3125,-8.41992 -2.16406,0 -4.32812,0 -6.49218,0 3.26823,7.34895 6.53646,14.69791 9.80468,22.04687 z" />
      <path
         id="path156"
         style="font-weight:100;font-size:50.8px;font-family:Blippo-Heavy;-inkscape-font-specification:'Blippo-Heavy Thin';text-align:center;text-anchor:middle;stroke:none;stroke-width:1.00013;stroke-dasharray:none"
         d="m 437.83984,128.73633 c -2.11371,-0.0473 -4.11822,2.0833 -3.52986,4.21242 0.49186,2.32046 3.57761,3.18005 5.46319,1.98564 1.62424,-0.91383 2.11412,-3.27718 0.91042,-4.72345 -0.67439,-0.85363 -1.73387,-1.50172 -2.84375,-1.47461 z" />
      <path
         id="path157"
         style="font-weight:100;font-size:50.8px;font-family:Blippo-Heavy;-inkscape-font-specification:'Blippo-Heavy Thin';text-align:center;text-anchor:middle;stroke:none;stroke-width:1.00013;stroke-dasharray:none"
         d="m 434.17188,162.28125 c 2.39322,0 4.78645,0 7.17968,0 0,-7.54036 0,-15.08073 0,-22.62109 -2.39323,0 -4.78646,0 -7.17968,0 0,7.54036 0,15.08073 0,22.62109 z" />
      <path
         id="path158"
         style="font-weight:100;font-size:50.8px;font-family:Blippo-Heavy;-inkscape-font-specification:'Blippo-Heavy Thin';text-align:center;text-anchor:middle;stroke:none;stroke-width:1.00013;stroke-dasharray:none"
         d="m 415.83398,150.11914 c -0.10675,3.83478 1.62346,7.78892 4.87995,9.93142 1.93806,1.34413 4.27194,2.05909 6.61615,2.20139 0,-2.55273 0,-5.10547 0,-7.6582 -1.74703,-0.14421 -3.45107,-1.29571 -3.89097,-3.05207 -0.49004,-1.35906 -0.47692,-2.82214 -0.50161,-4.24676 1.39648,0 2.79297,0 4.18945,0 0,-2.54492 0,-5.08984 0,-7.63476 -1.38867,0 -2.77734,0 -4.16601,0 0,-3.16667 0,-6.33334 0,-9.5 -2.37565,0 -4.7513,0 -7.12696,0 0,6.65299 0,13.30599 0,19.95898 z" />
      <path
         id="path159"
         style="font-weight:100;font-size:50.8px;font-family:Blippo-Heavy;-inkscape-font-specification:'Blippo-Heavy Thin';text-align:center;text-anchor:middle;stroke:none;stroke-width:1.00013;stroke-dasharray:none"
         d="m 408.59766,140.06641 c -2.60522,-0.0131 -5.61436,0.5129 -7.20154,2.80578 -1.64592,2.29139 -1.99543,5.1799 -2.13021,7.84681 -0.0688,1.91287 -1.31925,3.86382 -3.27637,4.26465 -0.45286,0.12908 -0.9211,0.20029 -1.38993,0.23705 0,2.57683 0,5.15365 0,7.73047 3.03535,0.0977 6.33785,-0.41048 8.62922,-2.57617 2.4295,-2.20844 3.42434,-5.54445 3.54851,-8.74023 0.18553,-1.66439 1.21641,-3.39972 2.9668,-3.74219 0.73039,0.049 0.57621,-0.58432 0.56836,-1.125 0,-2.24414 0,-4.48828 0,-6.73242 -0.57161,0.0104 -1.14323,0.0208 -1.71484,0.0312 z" />
      <path
         id="path160"
         style="font-weight:100;font-size:50.8px;font-family:Blippo-Heavy;-inkscape-font-specification:'Blippo-Heavy Thin';text-align:center;text-anchor:middle;stroke:none;stroke-width:1.00013;stroke-dasharray:none"
         d="m 378.20703,139.21094 c -4.77443,0.117 -9.21007,3.52213 -10.81848,7.97422 -1.50058,4.41073 -0.0462,9.60782 3.47989,12.64247 3.89483,3.59093 10.24493,3.93632 14.58664,0.95557 -1.29623,-1.53125 -2.59245,-3.0625 -3.88867,-4.59375 -2.06774,1.64506 -5.57926,0.94724 -6.68709,-1.5068 -1.7039,-2.93615 -1.36462,-7.12597 1.25032,-9.42514 2.08266,-1.66423 5.67852,-0.98778 6.73559,1.55108 0.32393,0.74252 0.4204,1.55527 0.60547,2.33789 -1.8678,0.0224 -3.75176,0.0264 -5.60937,0.0625 -0.18444,0.71591 -0.23342,1.47343 -0.0899,2.20118 4.22396,0 8.44792,0 12.67188,0 0.22557,-3.48863 -1.3217,-6.9877 -3.99013,-9.23269 -2.244,-1.97855 -5.24276,-3.12205 -8.2462,-2.96653 z" />
      <path
         id="path161"
         style="font-weight:100;font-size:50.8px;font-family:Blippo-Heavy;-inkscape-font-specification:'Blippo-Heavy Thin';text-align:center;text-anchor:middle;stroke:none;stroke-width:1.00013;stroke-dasharray:none"
         d="m 355.14258,129.76172 c -6.22156,0.0718 -11.63233,5.91686 -11.39453,12.10195 0,6.80586 0,13.61172 0,20.41758 2.63021,0 5.26041,0 7.89062,0 0,-2.94596 0,-5.89193 0,-8.83789 1.13477,0 2.26953,0 3.4043,0 0,-2.32552 0,-4.65104 0,-6.97656 -1.13542,0 -2.27083,0 -3.40625,0 0.0759,-2.24087 -0.15431,-4.50104 0.14062,-6.72852 0.39818,-1.87955 2.47979,-3.14088 4.32881,-2.60615 0.71695,0.19758 1.322,0.69869 1.75518,1.2917 2.13411,-1.54557 4.26823,-3.09115 6.40234,-4.63672 -2.27739,-2.55223 -5.66,-4.21483 -9.12109,-4.02539 z" />
    </g>
    <g
       id="Music"
       transform="matrix(3.7795276,0,0,3.7795276,-352.90622,-11.397921)">
      <path
         style="font-weight:100;font-size:50.8px;font-family:Blippo-Heavy;-inkscape-font-specification:'Blippo-Heavy Thin';text-align:center;text-anchor:middle;fill:none;stroke:#000000;stroke-width:3.70417;stroke-dasharray:none;stroke-opacity:1"
         d="m 290.61977,151.45301 h 9.1948 q -0.3556,5.334 -4.0132,8.89 -3.6576,3.5052 -9.0424,3.5052 -5.334,0 -8.9916,-3.9116 -3.6576,-3.9624 -3.6576,-9.144 0,-5.08 3.7592,-8.8392 3.81,-3.81 8.89,-3.81 4.5212,0 8.2296,2.8956 3.7592,2.8448 4.6228,7.366 l -9.398,0.254 q -0.5588,-0.762 -1.3716,-1.2192 -0.762,-0.4572 -1.778,-0.4572 -1.524,0 -2.5908,1.1176 -1.0668,1.0668 -1.0668,2.5908 0,1.4224 1.0668,2.4892 1.1176,1.0668 2.54,1.0668 1.3716,0 2.2352,-0.762 0.9144,-0.8128 1.3716,-1.9812 z"
         id="path184" />
      <path
         style="font-weight:100;font-size:50.8px;font-family:Blippo-Heavy;-inkscape-font-specification:'Blippo-Heavy Thin';text-align:center;text-anchor:middle;fill:none;stroke:#000000;stroke-width:3.70417;stroke-dasharray:none;stroke-opacity:1"
         d="m 265.37215,127.62781 q 1.8288,0.0508 3.2004,1.3716 1.4224,1.27 1.4224,3.0988 0,1.9812 -1.3716,3.2004 -1.3208,1.2192 -3.2512,1.2192 -1.9304,0 -3.302,-1.2192 -1.3208,-1.2192 -1.3208,-3.2004 0,-1.8288 1.4224,-3.0988 1.4224,-1.3208 3.2004,-1.3208 z"
         id="path185" />
      <path
         style="font-weight:100;font-size:50.8px;font-family:Blippo-Heavy;-inkscape-font-specification:'Blippo-Heavy Thin';text-align:center;text-anchor:middle;fill:none;stroke:#000000;stroke-width:3.70417;stroke-dasharray:none;stroke-opacity:1"
         d="m 269.99495,138.60061 v 24.7396 h -9.2964 v -24.7396 z"
         id="path186" />
      <path
         style="font-weight:100;font-size:50.8px;font-family:Blippo-Heavy;-inkscape-font-specification:'Blippo-Heavy Thin';text-align:center;text-anchor:middle;fill:none;stroke:#000000;stroke-width:3.70417;stroke-dasharray:none;stroke-opacity:1"
         d="m 257.29492,138.95621 v 9.7536 q -1.9304,0.1016 -2.6924,0.9652 -0.762,0.8128 -0.9144,2.7432 -0.3556,5.2324 -3.4544,8.382 -3.0988,3.1496 -8.4836,3.2004 h -2.286 v -9.8044 q 2.2352,0.0508 3.4036,-0.8128 1.2192,-0.9144 1.3208,-3.3528 0.2032,-5.1308 2.4892,-8.0772 2.286,-2.9464 7.8232,-2.9464 z"
         id="path187" />
      <path
         style="font-weight:100;font-size:50.8px;font-family:Blippo-Heavy;-inkscape-font-specification:'Blippo-Heavy Thin';text-align:center;text-anchor:middle;fill:none;stroke:#000000;stroke-width:3.70417;stroke-dasharray:none;stroke-opacity:1"
         d="m 214.06409,138.95621 h 9.1948 v 13.97 q 0,0.8636 0.4572,1.5748 0.4572,0.6604 1.3716,0.6604 0.8636,0 1.3208,-0.6096 0.4572,-0.6604 0.508,-1.4224 0,-0.0508 0,-0.0508 0,-0.0508 0,-0.1016 v -14.0208 h 9.1948 v 13.8176 q 0,4.5212 -3.048,7.9756 -3.048,3.4544 -7.7216,3.4544 -5.1816,0 -8.2296,-3.6068 -3.048,-3.6068 -3.048,-8.5344 z"
         id="path188" />
      <path
         style="font-weight:100;font-size:50.8px;font-family:Blippo-Heavy;-inkscape-font-specification:'Blippo-Heavy Thin';text-align:center;text-anchor:middle;fill:none;stroke:#000000;stroke-width:3.70417;stroke-dasharray:none;stroke-opacity:1"
         d="m 172.50962,163.34021 v -25.4 q 0,-3.7084 2.8956,-6.4516 2.8956,-2.794 6.604,-2.794 2.7432,0 4.826,1.2192 2.1336,1.2192 3.5052,3.556 1.1176,-2.032 3.2004,-3.302 2.1336,-1.3208 4.4704,-1.4732 0.1016,0 0.2032,0 0.1524,0 0.3048,0 4.7752,0 7.2644,3.2004 2.54,3.1496 2.54,7.62 v 23.8252 h -9.9568 v -22.352 q 0,0 0,-0.0508 0,-0.1016 0,-0.1524 -0.0508,-0.6096 -0.3556,-1.1176 -0.3048,-0.5588 -1.016,-0.5588 -0.762,0 -1.1176,0.5588 -0.3556,0.508 -0.4572,1.1684 0,0.1016 0,0.2032 0,0.0508 0,0.1524 v 22.1488 h -10.0076 v -22.352 q 0,0 0,-0.0508 0,-0.1016 0,-0.1524 -0.0508,-0.6096 -0.3556,-1.1176 -0.3048,-0.5588 -1.016,-0.5588 -0.8128,0 -1.1684,0.6096 -0.3556,0.6096 -0.3556,1.3208 v 22.3012 z"
         id="path189" />
      <path
         style="font-weight:100;font-size:50.8px;font-family:Blippo-Heavy;-inkscape-font-specification:'Blippo-Heavy Thin';text-align:center;text-anchor:middle;fill:none;stroke:#ffffff;stroke-width:1.32292;stroke-dasharray:none"
         d="m 290.61977,151.45301 h 9.1948 q -0.3556,5.334 -4.0132,8.89 -3.6576,3.5052 -9.0424,3.5052 -5.334,0 -8.9916,-3.9116 -3.6576,-3.9624 -3.6576,-9.144 0,-5.08 3.7592,-8.8392 3.81,-3.81 8.89,-3.81 4.5212,0 8.2296,2.8956 3.7592,2.8448 4.6228,7.366 l -9.398,0.254 q -0.5588,-0.762 -1.3716,-1.2192 -0.762,-0.4572 -1.778,-0.4572 -1.524,0 -2.5908,1.1176 -1.0668,1.0668 -1.0668,2.5908 0,1.4224 1.0668,2.4892 1.1176,1.0668 2.54,1.0668 1.3716,0 2.2352,-0.762 0.9144,-0.8128 1.3716,-1.9812 z"
         id="path143" />
      <path
         style="font-weight:100;font-size:50.8px;font-family:Blippo-Heavy;-inkscape-font-specification:'Blippo-Heavy Thin';text-align:center;text-anchor:middle;fill:none;stroke:#ffffff;stroke-width:1.32292;stroke-dasharray:none"
         d="m 265.37215,127.62781 q 1.8288,0.0508 3.2004,1.3716 1.4224,1.27 1.4224,3.0988 0,1.9812 -1.3716,3.2004 -1.3208,1.2192 -3.2512,1.2192 -1.9304,0 -3.302,-1.2192 -1.3208,-1.2192 -1.3208,-3.2004 0,-1.8288 1.4224,-3.0988 1.4224,-1.3208 3.2004,-1.3208 z"
         id="path142" />
      <path
         style="font-weight:100;font-size:50.8px;font-family:Blippo-Heavy;-inkscape-font-specification:'Blippo-Heavy Thin';text-align:center;text-anchor:middle;fill:none;stroke:#ffffff;stroke-width:1.32292;stroke-dasharray:none"
         d="m 269.99495,138.60061 v 24.7396 h -9.2964 v -24.7396 z"
         id="path141" />
      <path
         style="font-weight:100;font-size:50.8px;font-family:Blippo-Heavy;-inkscape-font-specification:'Blippo-Heavy Thin';text-align:center;text-anchor:middle;fill:none;stroke:#ffffff;stroke-width:1.32292;stroke-dasharray:none"
         d="m 257.29492,138.95621 v 9.7536 q -1.9304,0.1016 -2.6924,0.9652 -0.762,0.8128 -0.9144,2.7432 -0.3556,5.2324 -3.4544,8.382 -3.0988,3.1496 -8.4836,3.2004 h -2.286 v -9.8044 q 2.2352,0.0508 3.4036,-0.8128 1.2192,-0.9144 1.3208,-3.3528 0.2032,-5.1308 2.4892,-8.0772 2.286,-2.9464 7.8232,-2.9464 z"
         id="path140" />
      <path
         style="font-weight:100;font-size:50.8px;font-family:Blippo-Heavy;-inkscape-font-specification:'Blippo-Heavy Thin';text-align:center;text-anchor:middle;fill:none;stroke:#ffffff;stroke-width:1.32292;stroke-dasharray:none"
         d="m 214.06409,138.95621 h 9.1948 v 13.97 q 0,0.8636 0.4572,1.5748 0.4572,0.6604 1.3716,0.6604 0.8636,0 1.3208,-0.6096 0.4572,-0.6604 0.508,-1.4224 0,-0.0508 0,-0.0508 0,-0.0508 0,-0.1016 v -14.0208 h 9.1948 v 13.8176 q 0,4.5212 -3.048,7.9756 -3.048,3.4544 -7.7216,3.4544 -5.1816,0 -8.2296,-3.6068 -3.048,-3.6068 -3.048,-8.5344 z"
         id="path139" />
      <path
         style="font-weight:100;font-size:50.8px;font-family:Blippo-Heavy;-inkscape-font-specification:'Blippo-Heavy Thin';text-align:center;text-anchor:middle;fill:none;stroke:#ffffff;stroke-width:1.32292;stroke-dasharray:none"
         d="m 172.50962,163.34021 v -25.4 q 0,-3.7084 2.8956,-6.4516 2.8956,-2.794 6.604,-2.794 2.7432,0 4.826,1.2192 2.1336,1.2192 3.5052,3.556 1.1176,-2.032 3.2004,-3.302 2.1336,-1.3208 4.4704,-1.4732 0.1016,0 0.2032,0 0.1524,0 0.3048,0 4.7752,0 7.2644,3.2004 2.54,3.1496 2.54,7.62 v 23.8252 h -9.9568 v -22.352 q 0,0 0,-0.0508 0,-0.1016 0,-0.1524 -0.0508,-0.6096 -0.3556,-1.1176 -0.3048,-0.5588 -1.016,-0.5588 -0.762,0 -1.1176,0.5588 -0.3556,0.508 -0.4572,1.1684 0,0.1016 0,0.2032 0,0.0508 0,0.1524 v 22.1488 h -10.0076 v -22.352 q 0,0 0,-0.0508 0,-0.1016 0,-0.1524 -0.0508,-0.6096 -0.3556,-1.1176 -0.3048,-0.5588 -1.016,-0.5588 -0.8128,0 -1.1684,0.6096 -0.3556,0.6096 -0.3556,1.3208 v 22.3012 z"
         id="path138" />
      <path
         id="path162"
         style="font-weight:100;font-size:50.8px;font-family:Blippo-Heavy;-inkscape-font-specification:'Blippo-Heavy Thin';text-align:center;text-anchor:middle;stroke:none;stroke-width:1.00013;stroke-dasharray:none"
         d="m 286.17188,139.2168 c -4.69764,0.18525 -8.91699,3.67665 -10.44727,8.04492 -0.77254,2.27271 -0.72316,4.98564 0.0276,7.2746 0.84,2.608 2.52393,4.81692 4.75759,6.38556 4.45076,3.03936 10.98552,2.30952 14.74473,-1.51774 1.85796,-1.8448 3.06313,-4.40889 3.38417,-6.89047 -2.44067,0.0193 -4.90428,-0.0505 -7.33008,0.0371 -0.85108,1.73452 -2.73847,3.00326 -4.71289,2.74024 -2.74569,-0.19882 -4.92471,-3.18157 -4.0884,-5.84976 0.64851,-2.62955 3.81544,-4.30337 6.32405,-3.1788 0.71123,0.28761 1.34454,0.75553 1.8581,1.32348 2.52865,-0.0684 5.05729,-0.13672 7.58594,-0.20508 -1.21639,-3.95013 -4.81179,-6.90469 -8.76562,-7.86524 -1.09145,-0.25492 -2.21851,-0.3533 -3.33789,-0.29882 z" />
      <path
         id="path163"
         style="font-weight:100;font-size:50.8px;font-family:Blippo-Heavy;-inkscape-font-specification:'Blippo-Heavy Thin';text-align:center;text-anchor:middle;stroke:none;stroke-width:1.00013;stroke-dasharray:none"
         d="m 265.42578,128.73633 c -1.97831,-0.0328 -3.9314,1.83351 -3.58594,3.86914 0.0862,1.5507 1.67387,2.7874 3.22071,2.85742 1.67828,0.18785 3.55234,-0.9704 3.83959,-2.74345 0.37744,-2.03944 -1.46754,-3.98703 -3.47436,-3.98311 z" />
      <path
         id="path164"
         style="font-weight:100;font-size:50.8px;font-family:Blippo-Heavy;-inkscape-font-specification:'Blippo-Heavy Thin';text-align:center;text-anchor:middle;stroke:none;stroke-width:1.00013;stroke-dasharray:none"
         d="m 261.75781,162.28125 c 2.39258,0 4.78516,0 7.17774,0 0,-7.54036 0,-15.08073 0,-22.62109 -2.39258,0 -4.78516,0 -7.17774,0 0,7.54036 0,15.08073 0,22.62109 z" />
      <path
         id="path165"
         style="font-weight:100;font-size:50.8px;font-family:Blippo-Heavy;-inkscape-font-specification:'Blippo-Heavy Thin';text-align:center;text-anchor:middle;stroke:none;stroke-width:1.00013;stroke-dasharray:none"
         d="m 254.51953,140.06641 c -2.60439,-0.0123 -5.61412,0.51105 -7.19973,2.80568 -1.64575,2.29135 -1.99501,5.18022 -2.13006,7.84691 -0.0709,1.91181 -1.31889,3.86436 -3.27637,4.26465 -0.45286,0.12908 -0.9211,0.20029 -1.38993,0.23705 0,2.57683 0,5.15365 0,7.73047 2.72226,0.0579 5.56742,-0.25738 7.83187,-1.93119 2.91109,-2.08299 4.20178,-5.7403 4.32822,-9.20518 0.13594,-1.72412 1.16864,-3.56623 2.98444,-3.92222 0.73039,0.049 0.57621,-0.58432 0.56836,-1.125 0,-2.24414 0,-4.48828 0,-6.73242 -0.57227,0.0104 -1.14453,0.0208 -1.7168,0.0312 z" />
      <path
         id="path166"
         style="font-weight:100;font-size:50.8px;font-family:Blippo-Heavy;-inkscape-font-specification:'Blippo-Heavy Thin';text-align:center;text-anchor:middle;stroke:none;stroke-width:1.00013;stroke-dasharray:none"
         d="m 215.12305,152.04297 c -0.0721,4.15831 2.12005,8.5196 5.99862,10.29221 3.53768,1.48498 8.10225,1.00828 10.79163,-1.90235 2.25934,-2.25117 3.37385,-5.50656 3.13943,-8.67111 0,-3.91537 0,-7.83073 0,-11.7461 -2.35937,0 -4.71875,0 -7.07812,0 -0.0255,4.53706 0.0622,9.07986 -0.0547,13.61329 -0.19594,1.50731 -1.60642,2.84719 -3.18164,2.58398 -1.68314,-0.14575 -2.68878,-1.96125 -2.52376,-3.52734 -0.025,-4.22326 -0.0119,-8.44662 -0.0134,-12.66993 -2.35937,10e-6 -4.71875,0 -7.07812,0 0,4.00912 0,8.01823 0,12.02735 z" />
      <path
         id="path167"
         style="font-weight:100;font-size:50.8px;font-family:Blippo-Heavy;-inkscape-font-specification:'Blippo-Heavy Thin';text-align:center;text-anchor:middle;stroke:none;stroke-width:1.00013;stroke-dasharray:none"
         d="m 198.0918,129.76758 c -3.03149,0.17147 -5.8636,2.10009 -7.19141,4.82031 -0.40623,0.6306 -1.23296,0.16624 -1.39493,-0.42508 -1.51687,-3.00109 -5.00471,-4.79031 -8.33168,-4.36437 -3.30449,0.35411 -6.26096,2.8476 -7.29561,5.98363 -0.59325,2.24614 -0.18569,4.5907 -0.30981,6.88121 0,6.53932 0,13.07865 0,19.61797 2.63021,0 5.26042,0 7.89062,0 0.0128,-7.27555 -0.0438,-14.55398 0.0421,-21.8277 0.13109,-1.40172 1.44663,-2.67865 2.9052,-2.38324 1.52963,0.21818 2.20798,1.95705 2.06445,3.33672 0,6.95807 0,13.91615 0,20.87422 2.63021,0 5.26042,0 7.89063,0 0.01,-7.24459 -0.0283,-14.49367 0.0334,-21.73546 0.1767,-1.40995 1.46476,-2.78589 2.97424,-2.46973 1.53235,0.21359 2.19271,1.96135 2.0568,3.33644 0,6.95625 0,13.9125 0,20.86875 2.61328,0 5.22656,0 7.83984,0 -0.0315,-8.00172 0.0673,-16.00657 -0.0577,-24.00627 -0.27488,-3.14026 -1.91882,-6.42579 -4.88762,-7.7867 -1.32399,-0.58228 -2.78788,-0.81277 -4.22851,-0.7207 z" />
    </g>
    <g
       id="Cwmaman"
       transform="matrix(3.7795276,0,0,3.7795276,416.47658,-190.43825)">
      <path
         style="font-weight:100;font-size:50.8px;font-family:Blippo-Heavy;-inkscape-font-specification:'Blippo-Heavy Thin';text-align:center;text-anchor:middle;fill:none;stroke:#000000;stroke-width:3.70417;stroke-dasharray:none;stroke-opacity:1"
         d="m 152.64679,163.34021 h -9.1948 v -13.97 q 0,-0.8128 -0.4572,-1.4224 -0.4572,-0.6604 -1.3716,-0.6604 -0.8636,0 -1.3716,0.6604 -0.4572,0.6604 -0.4572,1.4732 v 13.9192 h -9.1948 v -13.8176 q 0,-4.4704 3.048,-7.9248 3.048,-3.4544 7.7216,-3.4544 5.1816,0 8.2296,3.6068 3.048,3.6068 3.048,8.5852 z"
         id="path190" />
      <path
         style="font-weight:100;font-size:50.8px;font-family:Blippo-Heavy;-inkscape-font-specification:'Blippo-Heavy Thin';text-align:center;text-anchor:middle;fill:none;stroke:#000000;stroke-width:3.70417;stroke-dasharray:none;stroke-opacity:1"
         d="m 114.54683,154.09461 v 9.5504 q -0.6096,0.1016 -1.2192,0.1524 -0.6096,0.0508 -1.2192,0.0508 -5.3848,0 -9.0424,-3.9624 -3.657598,-4.0132 -3.657598,-9.2456 0,-5.2324 3.860798,-8.8392 3.9116,-3.6576 8.9916,-3.6576 5.2832,0 9.0932,3.7592 3.8608,3.7592 3.8608,9.0424 v 12.3952 h -9.4996 v -11.43 q 0,-1.4732 -0.9144,-2.6924 -0.8636,-1.2192 -2.54,-1.2192 -1.3716,0 -2.4892,1.016 -1.0668,0.9652 -1.0668,2.3876 0,1.4224 0.9652,2.4384 0.9652,1.016 2.3876,1.1176 0.7112,0 1.3208,-0.2032 0.6096,-0.2032 1.1684,-0.6096 z"
         id="path191" />
      <path
         style="font-weight:100;font-size:50.8px;font-family:Blippo-Heavy;-inkscape-font-specification:'Blippo-Heavy Thin';text-align:center;text-anchor:middle;fill:none;stroke:#000000;stroke-width:3.70417;stroke-dasharray:none;stroke-opacity:1"
         d="m 95.344379,163.34021 h -9.2964 v -12.8016 q 0,-0.1016 0,-0.3048 0,-0.2032 -0.0508,-0.4064 -0.0508,-0.7112 -0.3556,-1.27 -0.3048,-0.6096 -1.1684,-0.6096 l -0.0508,-0.0508 q -0.8128,0.1016 -1.1684,0.7112 -0.3048,0.6096 -0.3556,1.3208 -0.0508,0.1524 -0.0508,0.3556 0,0.1524 0,0.3048 v 12.7508 h -9.1948 v -12.8016 q 0,-0.1016 0,-0.254 0,-0.1524 0,-0.3048 -0.0508,-0.762 -0.4064,-1.3716 -0.3048,-0.6604 -1.1684,-0.6604 l -0.0508,-0.0508 q -0.8128,0.1016 -1.1176,0.7112 -0.3048,0.5588 -0.3556,1.2192 -0.0508,0.2032 -0.0508,0.4064 0,0.1524 0,0.3556 v 12.7508 h -9.144 v -15.5448 q 0,-3.81 2.794,-6.7056 2.8448,-2.9464 6.7056,-2.9464 2.3876,0 4.1148,0.9652 1.778,0.9144 3.4036,2.54 1.4732,-1.4732 3.2004,-2.4892 1.778,-1.016 3.9624,-1.016 4.8768,0 7.3152,3.302 2.4892,3.2512 2.4892,7.7724 z"
         id="path192" />
      <path
         style="font-weight:100;font-size:50.8px;font-family:Blippo-Heavy;-inkscape-font-specification:'Blippo-Heavy Thin';text-align:center;text-anchor:middle;fill:none;stroke:#000000;stroke-width:3.70417;stroke-dasharray:none;stroke-opacity:1"
         d="m 45.25561,154.09461 v 9.5504 q -0.6096,0.1016 -1.2192,0.1524 -0.6096,0.0508 -1.2192,0.0508 -5.3848,0 -9.0424,-3.9624 -3.6576,-4.0132 -3.6576,-9.2456 0,-5.2324 3.8608,-8.8392 3.9116,-3.6576 8.9916,-3.6576 5.2832,0 9.0932,3.7592 3.8608,3.7592 3.8608,9.0424 v 12.3952 h -9.4996 v -11.43 q 0,-1.4732 -0.9144,-2.6924 -0.8636,-1.2192 -2.54,-1.2192 -1.3716,0 -2.4892,1.016 -1.0668,0.9652 -1.0668,2.3876 0,1.4224 0.9652,2.4384 0.9652,1.016 2.3876,1.1176 0.7112,0 1.3208,-0.2032 0.6096,-0.2032 1.1684,-0.6096 z"
         id="path193" />
      <path
         style="font-weight:100;font-size:50.8px;font-family:Blippo-Heavy;-inkscape-font-specification:'Blippo-Heavy Thin';text-align:center;text-anchor:middle;fill:none;stroke:#000000;stroke-width:3.70417;stroke-dasharray:none;stroke-opacity:1"
         d="m 26.053165,163.34021 h -9.2964 v -12.8016 q 0,-0.1016 0,-0.3048 0,-0.2032 -0.0508,-0.4064 -0.0508,-0.7112 -0.3556,-1.27 -0.3048,-0.6096 -1.1684,-0.6096 l -0.0508,-0.0508 q -0.8128,0.1016 -1.1684,0.7112 -0.3048,0.6096 -0.3556,1.3208 -0.0508,0.1524 -0.0508,0.3556 0,0.1524 0,0.3048 v 12.7508 H 4.3615651 v -12.8016 q 0,-0.1016 0,-0.254 0,-0.1524 0,-0.3048 -0.0508,-0.762 -0.4064,-1.3716 -0.3048,-0.6604 -1.1684,-0.6604 l -0.0508,-0.0508 q -0.8128,0.1016 -1.1176,0.7112 -0.3048,0.5588 -0.3556,1.2192 -0.0508,0.2032 -0.0508,0.4064 0,0.1524 0,0.3556 v 12.7508 h -9.1439998 v -15.5448 q 0,-3.81 2.7939999,-6.7056 2.8448,-2.9464 6.7055999,-2.9464 2.3876,0 4.1148,0.9652 1.7779999,0.9144 3.4035999,2.54 1.4732,-1.4732 3.2004,-2.4892 1.778,-1.016 3.9624,-1.016 4.8768,0 7.3152,3.302 2.4892,3.2512 2.4892,7.7724 z"
         id="path194" />
      <path
         style="font-weight:100;font-size:50.8px;font-family:Blippo-Heavy;-inkscape-font-specification:'Blippo-Heavy Thin';text-align:center;text-anchor:middle;fill:none;stroke:#000000;stroke-width:3.70417;stroke-dasharray:none;stroke-opacity:1"
         d="m -47.352887,138.95621 h 9.296399 v 12.8524 q 0,0.2032 0,0.4064 0,0.1524 0.0508,0.3048 0.0508,0.7112 0.3556,1.3208 0.3556,0.6096 1.27,0.6096 0.7112,0 1.016,-0.508 0.3556,-0.508 0.4572,-1.1176 0,-0.254 0,-0.508 0.0508,-0.254 0.0508,-0.4572 v -12.9032 h 9.1948 v 12.8524 q 0,0.2032 0,0.4064 0,0.1524 0.0508,0.3048 0.0508,0.7112 0.3556,1.3208 0.3048,0.6096 1.2192,0.6096 0.7112,0 1.016,-0.508 0.3556,-0.508 0.4572,-1.1176 0,-0.254 0,-0.508 0.0508,-0.254 0.0508,-0.4572 v -12.9032 h 9.144 v 15.5956 q 0,3.9116 -2.794,6.8072 -2.794,2.8448 -6.7056,2.8448 -2.3368,0 -4.1148,-0.8636 -1.778,-0.9144 -3.4036,-2.54 -1.4732,1.4732 -3.2512,2.4384 -1.7272,0.9652 -3.9116,0.9652 -4.825999,0 -7.315199,-3.2512 -2.4892,-3.2512 -2.4892,-7.7216 z"
         id="path195" />
      <path
         style="font-weight:100;font-size:50.8px;font-family:Blippo-Heavy;-inkscape-font-specification:'Blippo-Heavy Thin';text-align:center;text-anchor:middle;fill:none;stroke:#000000;stroke-width:3.70417;stroke-dasharray:none;stroke-opacity:1"
         d="m -62.338857,146.83021 10.5664,0.254 q -0.3048,2.4892 -1.016,4.8768 -0.6604,2.3876 -2.032,4.4704 -2.3368,3.7084 -6.35,5.7404 -4.0132,2.032 -8.382,2.032 -7.4168,0 -12.598399,-5.2324 -5.1308,-5.2832 -5.1308,-12.6492 0,-7.112 5.334,-12.3444 5.333999,-5.2832 12.395199,-5.2832 6.858,0 11.5316,4.1656 4.6736,4.1656 6.1468,10.668 l -10.7696,0.6604 q -1.016,-2.1844 -2.7432,-3.5052 -1.6764,-1.3716 -4.2164,-1.3716 -2.9464,0 -5.0292,2.2352 -2.0828,2.1844 -2.0828,5.0292 0,2.8956 2.1336,4.9784 2.1844,2.0828 5.0292,2.0828 3.1496,0 4.9784,-1.9304 1.8288,-1.9304 2.2352,-4.826 z"
         id="path196" />
      <path
         style="font-weight:100;font-size:50.8px;font-family:Blippo-Heavy;-inkscape-font-specification:'Blippo-Heavy Thin';text-align:center;text-anchor:middle;fill:none;stroke:#ffffff;stroke-width:1.32292;stroke-dasharray:none"
         d="m 152.64679,163.34021 h -9.1948 v -13.97 q 0,-0.8128 -0.4572,-1.4224 -0.4572,-0.6604 -1.3716,-0.6604 -0.8636,0 -1.3716,0.6604 -0.4572,0.6604 -0.4572,1.4732 v 13.9192 h -9.1948 v -13.8176 q 0,-4.4704 3.048,-7.9248 3.048,-3.4544 7.7216,-3.4544 5.1816,0 8.2296,3.6068 3.048,3.6068 3.048,8.5852 z"
         id="path137" />
      <path
         style="font-weight:100;font-size:50.8px;font-family:Blippo-Heavy;-inkscape-font-specification:'Blippo-Heavy Thin';text-align:center;text-anchor:middle;fill:none;stroke:#ffffff;stroke-width:1.32292;stroke-dasharray:none"
         d="m 114.54683,154.09461 v 9.5504 q -0.6096,0.1016 -1.2192,0.1524 -0.6096,0.0508 -1.2192,0.0508 -5.3848,0 -9.0424,-3.9624 -3.657598,-4.0132 -3.657598,-9.2456 0,-5.2324 3.860798,-8.8392 3.9116,-3.6576 8.9916,-3.6576 5.2832,0 9.0932,3.7592 3.8608,3.7592 3.8608,9.0424 v 12.3952 h -9.4996 v -11.43 q 0,-1.4732 -0.9144,-2.6924 -0.8636,-1.2192 -2.54,-1.2192 -1.3716,0 -2.4892,1.016 -1.0668,0.9652 -1.0668,2.3876 0,1.4224 0.9652,2.4384 0.9652,1.016 2.3876,1.1176 0.7112,0 1.3208,-0.2032 0.6096,-0.2032 1.1684,-0.6096 z"
         id="path136" />
      <path
         style="font-weight:100;font-size:50.8px;font-family:Blippo-Heavy;-inkscape-font-specification:'Blippo-Heavy Thin';text-align:center;text-anchor:middle;fill:none;stroke:#ffffff;stroke-width:1.32292;stroke-dasharray:none"
         d="m 95.344379,163.34021 h -9.2964 v -12.8016 q 0,-0.1016 0,-0.3048 0,-0.2032 -0.0508,-0.4064 -0.0508,-0.7112 -0.3556,-1.27 -0.3048,-0.6096 -1.1684,-0.6096 l -0.0508,-0.0508 q -0.8128,0.1016 -1.1684,0.7112 -0.3048,0.6096 -0.3556,1.3208 -0.0508,0.1524 -0.0508,0.3556 0,0.1524 0,0.3048 v 12.7508 h -9.1948 v -12.8016 q 0,-0.1016 0,-0.254 0,-0.1524 0,-0.3048 -0.0508,-0.762 -0.4064,-1.3716 -0.3048,-0.6604 -1.1684,-0.6604 l -0.0508,-0.0508 q -0.8128,0.1016 -1.1176,0.7112 -0.3048,0.5588 -0.3556,1.2192 -0.0508,0.2032 -0.0508,0.4064 0,0.1524 0,0.3556 v 12.7508 h -9.144 v -15.5448 q 0,-3.81 2.794,-6.7056 2.8448,-2.9464 6.7056,-2.9464 2.3876,0 4.1148,0.9652 1.778,0.9144 3.4036,2.54 1.4732,-1.4732 3.2004,-2.4892 1.778,-1.016 3.9624,-1.016 4.8768,0 7.3152,3.302 2.4892,3.2512 2.4892,7.7724 z"
         id="path135" />
      <path
         style="font-weight:100;font-size:50.8px;font-family:Blippo-Heavy;-inkscape-font-specification:'Blippo-Heavy Thin';text-align:center;text-anchor:middle;fill:none;stroke:#ffffff;stroke-width:1.32292;stroke-dasharray:none"
         d="m 45.25561,154.09461 v 9.5504 q -0.6096,0.1016 -1.2192,0.1524 -0.6096,0.0508 -1.2192,0.0508 -5.3848,0 -9.0424,-3.9624 -3.6576,-4.0132 -3.6576,-9.2456 0,-5.2324 3.8608,-8.8392 3.9116,-3.6576 8.9916,-3.6576 5.2832,0 9.0932,3.7592 3.8608,3.7592 3.8608,9.0424 v 12.3952 h -9.4996 v -11.43 q 0,-1.4732 -0.9144,-2.6924 -0.8636,-1.2192 -2.54,-1.2192 -1.3716,0 -2.4892,1.016 -1.0668,0.9652 -1.0668,2.3876 0,1.4224 0.9652,2.4384 0.9652,1.016 2.3876,1.1176 0.7112,0 1.3208,-0.2032 0.6096,-0.2032 1.1684,-0.6096 z"
         id="path134" />
      <path
         style="font-weight:100;font-size:50.8px;font-family:Blippo-Heavy;-inkscape-font-specification:'Blippo-Heavy Thin';text-align:center;text-anchor:middle;fill:none;stroke:#ffffff;stroke-width:1.32292;stroke-dasharray:none"
         d="m 26.053165,163.34021 h -9.2964 v -12.8016 q 0,-0.1016 0,-0.3048 0,-0.2032 -0.0508,-0.4064 -0.0508,-0.7112 -0.3556,-1.27 -0.3048,-0.6096 -1.1684,-0.6096 l -0.0508,-0.0508 q -0.8128,0.1016 -1.1684,0.7112 -0.3048,0.6096 -0.3556,1.3208 -0.0508,0.1524 -0.0508,0.3556 0,0.1524 0,0.3048 v 12.7508 H 4.3615651 v -12.8016 q 0,-0.1016 0,-0.254 0,-0.1524 0,-0.3048 -0.0508,-0.762 -0.4064,-1.3716 -0.3048,-0.6604 -1.1684,-0.6604 l -0.0508,-0.0508 q -0.8128,0.1016 -1.1176,0.7112 -0.3048,0.5588 -0.3556,1.2192 -0.0508,0.2032 -0.0508,0.4064 0,0.1524 0,0.3556 v 12.7508 h -9.1439998 v -15.5448 q 0,-3.81 2.7939999,-6.7056 2.8448,-2.9464 6.7055999,-2.9464 2.3876,0 4.1148,0.9652 1.7779999,0.9144 3.4035999,2.54 1.4732,-1.4732 3.2004,-2.4892 1.778,-1.016 3.9624,-1.016 4.8768,0 7.3152,3.302 2.4892,3.2512 2.4892,7.7724 z"
         id="path133" />
      <path
         style="font-weight:100;font-size:50.8px;font-family:Blippo-Heavy;-inkscape-font-specification:'Blippo-Heavy Thin';text-align:center;text-anchor:middle;fill:none;stroke:#ffffff;stroke-width:1.32292;stroke-dasharray:none"
         d="m -47.352887,138.95621 h 9.296399 v 12.8524 q 0,0.2032 0,0.4064 0,0.1524 0.0508,0.3048 0.0508,0.7112 0.3556,1.3208 0.3556,0.6096 1.27,0.6096 0.7112,0 1.016,-0.508 0.3556,-0.508 0.4572,-1.1176 0,-0.254 0,-0.508 0.0508,-0.254 0.0508,-0.4572 v -12.9032 h 9.1948 v 12.8524 q 0,0.2032 0,0.4064 0,0.1524 0.0508,0.3048 0.0508,0.7112 0.3556,1.3208 0.3048,0.6096 1.2192,0.6096 0.7112,0 1.016,-0.508 0.3556,-0.508 0.4572,-1.1176 0,-0.254 0,-0.508 0.0508,-0.254 0.0508,-0.4572 v -12.9032 h 9.144 v 15.5956 q 0,3.9116 -2.794,6.8072 -2.794,2.8448 -6.7056,2.8448 -2.3368,0 -4.1148,-0.8636 -1.778,-0.9144 -3.4036,-2.54 -1.4732,1.4732 -3.2512,2.4384 -1.7272,0.9652 -3.9116,0.9652 -4.825999,0 -7.315199,-3.2512 -2.4892,-3.2512 -2.4892,-7.7216 z"
         id="path132" />
      <path
         style="font-weight:100;font-size:50.8px;font-family:Blippo-Heavy;-inkscape-font-specification:'Blippo-Heavy Thin';text-align:center;text-anchor:middle;fill:none;stroke:#ffffff;stroke-width:1.32292;stroke-dasharray:none"
         d="m -62.338857,146.83021 10.5664,0.254 q -0.3048,2.4892 -1.016,4.8768 -0.6604,2.3876 -2.032,4.4704 -2.3368,3.7084 -6.35,5.7404 -4.0132,2.032 -8.382,2.032 -7.4168,0 -12.598399,-5.2324 -5.1308,-5.2832 -5.1308,-12.6492 0,-7.112 5.334,-12.3444 5.333999,-5.2832 12.395199,-5.2832 6.858,0 11.5316,4.1656 4.6736,4.1656 6.1468,10.668 l -10.7696,0.6604 q -1.016,-2.1844 -2.7432,-3.5052 -1.6764,-1.3716 -4.2164,-1.3716 -2.9464,0 -5.0292,2.2352 -2.0828,2.1844 -2.0828,5.0292 0,2.8956 2.1336,4.9784 2.1844,2.0828 5.0292,2.0828 3.1496,0 4.9784,-1.9304 1.8288,-1.9304 2.2352,-4.826 z"
         id="text128" />
      <path
         id="path168"
         style="font-weight:100;font-size:50.8px;font-family:Blippo-Heavy;-inkscape-font-specification:'Blippo-Heavy Thin';text-align:center;text-anchor:middle;stroke:none;stroke-width:1.00013;stroke-dasharray:none"
         d="m 140.80859,139.21484 c -3.1541,0.0649 -6.01162,2.05139 -7.59105,4.71531 -1.33365,2.10485 -1.70437,4.65588 -1.55934,7.1054 0,3.74856 0,7.49713 0,11.2457 2.35938,0 4.71875,0 7.07813,0 0.0379,-4.54981 -0.0822,-9.10781 0.0723,-13.65234 0.2696,-1.6121 2.02014,-2.82365 3.61569,-2.30066 1.58538,0.42794 2.28165,2.24444 2.08549,3.753 0,4.06667 0,8.13333 0,12.2 2.35937,0 4.71875,0 7.07812,0 -0.0447,-4.50144 0.10189,-9.01017 -0.0901,-13.50681 -0.39634,-4.04531 -3.07541,-8.0796 -7.11885,-9.19632 -1.13291,-0.29231 -2.36459,-0.41147 -3.57032,-0.36328 z" />
      <path
         id="path169"
         style="font-weight:100;font-size:50.8px;font-family:Blippo-Heavy;-inkscape-font-specification:'Blippo-Heavy Thin';text-align:center;text-anchor:middle;stroke:none;stroke-width:1.00013;stroke-dasharray:none"
         d="m 111.6543,139.2168 c -2.46086,0.0997 -4.83961,1.05339 -6.71625,2.54162 -2.84981,2.11673 -4.65659,5.62189 -4.46657,9.19547 0.0541,5.39491 4.08418,10.69088 9.4875,11.64963 1.16417,0.19695 2.35515,0.23389 3.5293,0.10937 -0.0184,-2.27545 0.0367,-4.64845 -0.0273,-6.86328 -2.40318,0.71007 -5.18627,-0.8993 -5.69544,-3.36869 -0.49207,-1.94198 0.50829,-4.10097 2.30814,-4.98168 1.95603,-1.11895 4.81352,-0.52895 5.88519,1.54135 1.2249,1.89793 0.70441,4.24669 0.81461,6.37035 0,2.2901 0,4.58021 0,6.87031 2.46094,0 4.92187,0 7.38281,0 -0.0413,-4.28107 0.0956,-8.56833 -0.0864,-12.84535 -0.66704,-5.57811 -5.87526,-10.21052 -11.4953,-10.22657 -0.30654,-0.0154 -0.61354,0.007 -0.92022,0.007 z" />
      <path
         id="path170"
         style="font-weight:100;font-size:50.8px;font-family:Blippo-Heavy;-inkscape-font-specification:'Blippo-Heavy Thin';text-align:center;text-anchor:middle;stroke:none;stroke-width:1.00013;stroke-dasharray:none"
         d="m 85.322266,139.21289 c -1.810219,0.0254 -3.429727,0.81586 -4.779712,1.93099 -0.765927,0.60924 -1.46325,1.29884 -2.167554,1.97721 -1.550076,-1.5792 -3.237331,-3.0656 -5.436702,-3.67526 -2.824904,-0.7491 -5.999619,0.16574 -7.969903,2.33239 -1.67189,1.62422 -2.61032,3.92307 -2.562145,6.25303 0.03714,4.74946 -0.0014,9.49987 0.01172,14.25 2.342448,0 4.684896,0 7.027343,0 0.02157,-4.20362 -0.05458,-8.41194 0.04962,-12.61259 0.09762,-1.34209 1.032967,-2.83065 2.516783,-2.82296 1.276627,-0.025 2.331772,1.00796 2.55385,2.22828 0.318084,1.73954 0.06604,3.52324 0.145369,5.28149 0,2.64193 -1e-6,5.28385 0,7.92578 2.359374,0 4.71875,0 7.078124,0 0.01923,-4.19058 -0.05734,-8.38603 0.05387,-12.57348 0.08757,-1.36129 1.032993,-2.84534 2.524586,-2.86157 1.244249,-0.0468 2.334373,0.90538 2.561222,2.11209 0.354514,1.90173 0.10237,3.85656 0.17868,5.78038 0,2.51419 0,5.02839 0,7.54258 2.392578,0 4.785156,0 7.177734,0 -0.04272,-4.8919 0.09548,-9.78994 -0.08984,-14.67773 -0.360389,-3.02551 -1.875005,-6.1961 -4.70804,-7.60233 -1.290362,-0.6132 -2.742887,-0.85587 -4.165005,-0.7883 z" />
      <path
         id="path171"
         style="font-weight:100;font-size:50.8px;font-family:Blippo-Heavy;-inkscape-font-specification:'Blippo-Heavy Thin';text-align:center;text-anchor:middle;stroke:none;stroke-width:1.00013;stroke-dasharray:none"
         d="m 42.363281,139.2168 c -4.982474,0.19984 -9.894317,4.02959 -10.945312,9.03711 -0.325151,1.58583 -0.315716,3.16078 -0.04297,4.63671 0.462453,2.59393 1.798529,4.98149 3.647435,6.76786 2.368135,2.37904 5.861266,3.48144 9.174831,3.05441 -0.01838,-2.27545 0.03666,-4.64845 -0.02734,-6.86328 -2.403174,0.71007 -5.186269,-0.8993 -5.695439,-3.36869 -0.492072,-1.94198 0.508293,-4.10097 2.30814,-4.98168 1.990211,-1.14433 4.887203,-0.49613 5.939803,1.62512 1.16864,1.92462 0.643547,4.25926 0.759996,6.38658 0,2.25677 0,4.51354 0,6.77031 2.460937,0 4.921875,0 7.382812,0 -0.04127,-4.28107 0.09559,-8.56833 -0.08643,-12.84535 -0.667214,-5.5774 -5.875411,-10.21089 -11.495308,-10.22657 -0.30654,-0.0154 -0.613539,0.007 -0.920219,0.007 z" />
      <path
         id="path172"
         style="font-weight:100;font-size:50.8px;font-family:Blippo-Heavy;-inkscape-font-specification:'Blippo-Heavy Thin';text-align:center;text-anchor:middle;stroke:none;stroke-width:1.00013;stroke-dasharray:none"
         d="m 16.023438,139.21289 c -2.397469,0.007 -4.441923,1.48218 -6.0877186,3.08883 -0.4069684,0.26268 -0.8152157,1.219 -1.2189225,0.46195 -1.521753,-1.54805 -3.3029154,-2.95265 -5.5046806,-3.42194 -2.66510649,-0.53898 -5.526665,0.36112 -7.4240529,2.30453 -1.7774875,1.71277 -2.7804632,4.16417 -2.6741978,6.63494 0.042541,4.66605 -0.00294,9.3333 0.013088,14.00005 2.3424479,0 4.6848959,0 7.02734378,0 0.0215657,-4.20362 -0.05457795,-8.41194 0.0496239,-12.61259 0.0976166,-1.34209 1.03296702,-2.83065 2.51678232,-2.82296 1.3119906,-0.0263 2.3760905,1.06292 2.574374,2.31744 0.2827067,1.78019 0.050338,3.59685 0.1248448,5.39233 0,2.57526 0,5.15052 0,7.72578 2.359375,0 4.7187506,0 7.0781256,0 0.01923,-4.19058 -0.05734,-8.38603 0.05387,-12.57348 0.08757,-1.36129 1.032994,-2.84534 2.524586,-2.86157 1.244471,-0.0466 2.334387,0.90502 2.561222,2.11209 0.351372,1.90196 0.10072,3.85657 0.176727,5.78038 0,2.51419 0,5.02839 0,7.54258 2.393229,0 4.786458,0 7.179688,0 -0.04268,-4.89321 0.09543,-9.79255 -0.08984,-14.68164 -0.363729,-3.02186 -1.872905,-6.19179 -4.704274,-7.59421 -1.293022,-0.62096 -2.749432,-0.86021 -4.176585,-0.79251 z" />
      <path
         id="path173"
         style="font-weight:100;font-size:50.8px;font-family:Blippo-Heavy;-inkscape-font-specification:'Blippo-Heavy Thin';text-align:center;text-anchor:middle;stroke:none;stroke-width:1.00013;stroke-dasharray:none"
         d="m -46.294922,153.21289 c -0.02083,3.34228 1.279172,6.96256 4.199219,8.82031 1.929728,1.12818 4.391455,1.38677 6.617187,0.82813 2.015773,-0.62669 3.633964,-2.06871 5.095704,-3.53516 1.821395,1.91735 4.111957,3.76752 6.888854,3.80062 3.09179,0.29536 6.158628,-1.39294 7.775208,-4.0057 1.161078,-1.79538 1.422047,-3.99028 1.292969,-6.08242 0,-4.34101 0,-8.68203 0,-13.02305 -2.342448,0 -4.684896,0 -7.027344,0 -0.02832,4.27757 0.06847,8.56095 -0.06182,12.83494 -0.09437,1.34248 -1.118611,2.75152 -2.581147,2.66702 -1.248233,0.0363 -2.342037,-0.98147 -2.452036,-2.21696 -0.372058,-1.90902 -0.07407,-3.86308 -0.172573,-5.79281 0,-2.49739 0,-4.99479 0,-7.49219 -2.358724,0 -4.717448,10e-6 -7.076172,0 -0.03609,4.33249 0.08221,8.67205 -0.08008,13 -0.151837,1.29985 -1.191003,2.60092 -2.6,2.50196 -1.355143,0.0328 -2.484311,-1.17969 -2.519879,-2.50565 -0.277071,-1.98809 -0.03323,-4.00305 -0.118402,-6.00295 0,-2.33112 0,-4.66224 0,-6.99336 -2.39323,10e-6 -4.786459,0 -7.179688,0 0,4.39909 0,8.79818 0,13.19727 z" />
      <path
         id="path174"
         style="font-weight:100;font-size:50.8px;font-family:Blippo-Heavy;-inkscape-font-specification:'Blippo-Heavy Thin';text-align:center;text-anchor:middle;stroke:none;stroke-width:1.00013;stroke-dasharray:none"
         d="m -70.408203,129.77344 c -4.631305,0.15924 -8.935855,2.64596 -11.899547,6.12519 -2.851895,3.2122 -4.268798,7.60863 -3.86361,11.88283 0.432239,6.80851 5.508547,13.05493 12.119434,14.78803 6.272281,1.69889 13.618728,-0.40072 17.603308,-5.64765 1.990506,-2.5275 2.947525,-5.67335 3.452524,-8.80661 -2.81901,-0.0677 -5.638021,-0.13541 -8.457031,-0.20312 -0.634458,3.12411 -2.997665,6.08851 -6.265585,6.61948 -3.004576,0.64292 -6.290919,-0.49161 -8.23152,-2.88109 -2.335783,-2.73658 -2.427066,-7.05763 -0.229445,-9.90336 1.625124,-2.31616 4.466023,-3.77961 7.315074,-3.47331 2.968819,0.1634 5.512548,2.24802 6.843117,4.81797 2.933593,-0.18034 5.867187,-0.36068 8.800781,-0.54102 -1.503798,-5.51688 -5.677749,-10.46651 -11.256734,-12.11188 -1.923231,-0.5518 -3.934848,-0.74309 -5.930766,-0.66546 z" />
    </g>
  </g>
</svg>
