<svg xmlns="http://www.w3.org/2000/svg" version="1.1" xmlns:xlink="http://www.w3.org/1999/xlink" width="1000" height="1000"><g clip-path="url(#SvgjsClipPath1049)"><rect width="1000" height="1000" fill="#e0d300"></rect><g transform="matrix(0.5625,0,0,0.5625,50,246.875)"><svg xmlns="http://www.w3.org/2000/svg" version="1.1" xmlns:xlink="http://www.w3.org/1999/xlink" width="1600" height="900"><svg version="1.1" id="svg1" width="1600" height="900" viewBox="0 0 1600 900" sodipodi:docname="2025 Logo.svg" inkscape:export-filename="2025 Logo.jpg" inkscape:export-xdpi="96" inkscape:export-ydpi="96" inkscape:version="1.3.2 (091e20e, 2023-11-25, custom)" xmlns:inkscape="http://www.inkscape.org/namespaces/inkscape" xmlns:sodipodi="http://sodipodi.sourceforge.net/DTD/sodipodi-0.dtd" xmlns="http://www.w3.org/2000/svg" xmlns:svg="http://www.w3.org/2000/svg">
  <defs id="defs1"><clipPath id="SvgjsClipPath1049"><rect width="1000" height="1000" x="0" y="0" rx="350" ry="350"></rect></clipPath></defs>
  <sodipodi:namedview id="namedview1" pagecolor="#ffffff" bordercolor="#000000" borderopacity="0.25" inkscape:showpageshadow="2" inkscape:pageopacity="0.0" inkscape:pagecheckerboard="0" inkscape:deskcolor="#d1d1d1" showgrid="false" inkscape:zoom="0.86488776" inkscape:cx="798.9476" inkscape:cy="449.19123" inkscape:window-width="2560" inkscape:window-height="1377" inkscape:window-x="2552" inkscape:window-y="-8" inkscape:window-maximized="1" inkscape:current-layer="g1"></sodipodi:namedview>
  <g inkscape:groupmode="layer" inkscape:label="Image" id="g1" style="display:inline">
    <rect style="opacity:1;fill:#e0d300;fill-opacity:1;stroke:#e0d300;stroke-width:18.6025;stroke-opacity:1" id="rect6" width="1581.411" height="881.38739" x="9.2944946" y="9.3063049"></rect>
  </g>
  <g inkscape:groupmode="layer" id="layer1" inkscape:label="Text" style="display:inline">
    <path style="fill:#000000" d="M 927.5,806.20678 C 899.88595,787.8452 894.84896,784.1073 890.75,778.93491 l -4.75,-5.99392 0.023,-58.28162 0.023,-58.28163 32.88931,-21.75 c 18.08907,-11.9625 33.37873,-21.75 33.97697,-21.75 0.59825,0 1.08772,0.50221 1.08772,1.11602 0,0.61382 1.575,3.26161 3.5,5.88398 l 3.5,4.76795 V 725.7027 c 0,55.58135 -0.3375,101.22014 -0.75,101.41952 -0.4125,0.19938 -15.15,-9.21256 -32.75,-20.91544 z M 947.75984,669.13389 947.5,622.23855 919.75,640.66779 892,659.09704 v 56.23338 56.23338 l 27.75,18.40697 27.75,18.40697 0.25984,-46.17426 c 0.14291,-25.39584 0.14291,-67.27716 0,-93.06959 z M 936,796.02143 c -3.025,-2.06374 -13.2625,-9.04624 -22.75,-15.51667 L 896,768.74034 l 0.0328,-53.6813 0.0328,-53.6813 23.44669,-15.60387 c 12.89569,-8.58213 23.68094,-15.36963 23.96724,-15.08334 0.2863,0.2863 0.52054,38.47054 0.52054,84.85388 0,66.82775 -0.25947,84.32253 -1.25,84.2813 -0.6875,-0.0286 -3.725,-1.74054 -6.75,-3.80428 z M 18.245186,820.37433 13.990372,814.98254 14.245186,714.68014 14.5,614.37774 115.25,614.12296 c 83.69417,-0.21165 100.75,-0.0278 100.75,1.08589 0,0.73737 1.63061,3.43363 3.62358,5.9917 3.61276,4.63713 3.61824,4.65928 1.83457,7.41411 -0.98396,1.51969 -10.754,16.3543 -21.7112,32.96579 l -19.92219,30.20271 -5.45073,0.29729 -5.45072,0.29729 2.9977,3.5 c 1.64874,1.925 2.99668,4.175 2.99543,5 -0.001,0.825 -5.04547,11.4 -11.20936,23.5 l -11.20708,22 -31.75,0.26405 -31.75,0.26404 v 17.33097 c 0,15.26566 -0.208545,17.51032 -1.75,18.83602 -3.109142,2.67395 -63.164606,42.80681 -63.970474,42.74911 -0.428739,-0.0307 -2.694192,-2.48212 -5.03434,-5.4476 z M 48.5,787.55645 l 27,-18.21575 0.272065,-18.73148 0.272066,-18.73148 32.727939,-0.0451 32.72793,-0.0451 8.75,-17.73951 c 4.8125,-9.75674 8.75,-18.06145 8.75,-18.45491 0,-0.39346 -18.675,-0.71539 -41.5,-0.71539 H 76 v -9.5 -9.5 h 46.91844 46.91844 l 2.30159,-3.75 c 1.26587,-2.0625 9.09996,-14.1 17.40908,-26.75 8.30912,-12.65 15.43667,-23.5625 15.83899,-24.25 0.58302,-0.99629 -18.15685,-1.25 -92.32752,-1.25 H 20 v 93 c 0,51.15 0.3375,92.97626 0.75,92.94723 0.4125,-0.029 12.9,-8.24985 27.75,-18.26852 z M 24.244496,711.69016 24.5,624.37774 111.35912,624.1222 c 75.15298,-0.22111 86.78484,-0.062 86.30802,1.18058 -0.3031,0.78987 -7.2147,11.58623 -15.35912,23.99191 L 167.5,671.85047 l -48.25,0.0136 -48.25,0.0136 v 13.5 13.5 h 40.33333 c 22.18334,0 40.56629,0.23296 40.85102,0.51768 0.28472,0.28473 -2.67778,6.80498 -6.58333,14.48945 l -7.10102,13.97176 -33.75,0.0105 -33.75,0.0106 v 19.90419 19.90418 l -8.75,5.8916 c -17.164213,11.5571 -35.770277,23.97239 -37.005504,24.69272 -1.004151,0.58557 -1.204352,-16.7479 -1,-86.58027 z m 746.068784,92.32959 c -26.36834,-17.72979 -32.94079,-22.61047 -36.35817,-26.99943 l -4.17144,-5.35742 0.10373,-39.89258 0.10373,-39.89258 H 717.6982 705.40527 l -5.26205,-6.60214 C 693.66398,677.14628 653,616.51643 653,614.98522 c 0,-0.80323 30.09036,-1.10748 109.53138,-1.10748 103.4032,0 109.56748,0.0979 110.17647,1.75 0.35479,0.9625 2.19927,3.66787 4.09885,6.01193 l 3.45378,4.26194 -21.88024,32.73806 -21.88024,32.73807 -16.25,0.27477 -16.25,0.27477 v 66.97523 c 0,36.83638 -0.3375,66.92663 -0.75,66.86724 -0.4125,-0.0594 -15.23402,-9.8469 -32.93672,-21.75 z m 38.18406,-128.14201 h 17.48296 l 17.81509,-26.75 c 9.7983,-14.7125 18.15429,-27.3125 18.56887,-28 0.60103,-0.99671 -19.61788,-1.25 -99.78122,-1.25 H 662.04805 l 18.62911,28 18.62911,28 H 717.15314 735 v 46.81401 46.814 l 27.75,18.45649 27.75,18.45648 0.25719,-65.27049 0.25719,-65.27049 z M 771.5,789.2591 c -7.7,-5.25653 -18.15185,-12.33023 -23.22633,-15.71934 l -9.22633,-6.16202 -0.0237,-47.75 -0.0237,-47.75 h -18.81063 -18.81063 l -15.55329,-23.46941 c -8.55431,-12.90818 -15.31453,-23.70818 -15.0227,-24 0.88105,-0.88106 183.03956,-0.59476 183.58546,0.28853 0.27844,0.45052 -6.47272,11.25052 -15.00257,24 l -15.50883,23.18088 H 805.43841 787 v 63.5 c 0,34.925 -0.3375,63.4862 -0.75,63.46934 -0.4125,-0.0169 -7.05,-4.33146 -14.75,-9.58798 z m 419.5,35.78503 c 0,-0.45849 -1.8021,-2.78568 -4.0048,-5.17154 l -4.0047,-4.33794 0.2547,-100.57845 0.2548,-100.57846 98.0497,-0.25487 98.0497,-0.25487 4.2051,5.96283 4.2051,5.96284 -0.2548,100.01132 -0.2548,100.01132 -32.0927,-21.21928 c -26.803,-17.72183 -32.8603,-22.1647 -36.75,-26.95516 -4.621,-5.69114 -4.6573,-5.79448 -4.6573,-13.25 v -7.51413 h -28.5 -28.5 v 13.35372 13.35372 l -14.25,9.3341 c -7.8375,5.13376 -22.2592,14.64958 -32.0482,21.14628 C 1193.5796,825.42907 1191,826.86654 1191,825.04413 Z m 27,-37.19488 26.5,-17.65598 V 756.2855 742.37774 l 37.75,-0.26203 37.75,-0.26202 v 14.26202 14.26203 l 27.078,18 c 14.893,9.9 27.4735,18.14374 27.9569,18.31942 0.5021,0.18248 0.7895,-39.68861 0.6706,-93 l -0.2055,-93.31942 -93.25,-0.25515 -93.25,-0.25516 v 93.56417 c 0,74.58215 0.2536,93.41298 1.25,92.8189 0.6875,-0.4099 13.175,-8.69046 27.75,-18.40125 z m 129.25,-4.72711 -23.25,-15.6303 v -15.30705 -15.30705 h -42 -42 v 15.52002 15.52001 l -22.6293,14.97999 c -12.4462,8.23899 -23.0237,14.97998 -23.5056,14.97998 -0.4968,0 -0.7655,-37.56179 -0.6206,-86.75 l 0.2555,-86.75 88.75,-0.2554 88.75,-0.25541 v 87.50541 c 0,48.12797 -0.1125,87.4772 -0.25,87.44274 -0.1375,-0.0345 -10.7125,-7.09629 -23.5,-15.69294 z M 1324,685.37774 v -13.5 h -42 -42 v 13.5 13.5 h 42 42 z m -79.5824,8.14582 c -0.2858,-0.7448 -0.3842,-4.9073 -0.2186,-9.25 l 0.301,-7.89582 37.75,-0.26203 37.75,-0.26202 v 9.51202 9.51203 h -37.5314 c -30.6425,0 -37.6268,-0.24856 -38.051,-1.35418 z M 236.30594,817.87774 c -2.05307,-2.75 -4.0868,-5 -4.51939,-5 -0.4326,0 -0.78655,-44.55 -0.78655,-99 v -99 h 101 c 73.66671,0 101,0.30203 101,1.11602 0,0.61382 1.61982,3.32266 3.5996,6.01967 l 3.59961,4.90364 -21.61298,32.48033 -21.61298,32.48034 h -5.48662 c -3.01765,0 -5.48663,0.27274 -5.48663,0.6061 0,0.33335 1.38247,2.3516 3.07215,4.485 2.19894,2.77639 2.88234,4.47693 2.40436,5.98291 -0.36728,1.15721 -5.34975,11.32304 -11.07215,22.59074 C 374.68196,736.8102 370,746.22014 370,746.45348 c 0,0.23334 4.3875,0.43897 9.75,0.45696 l 9.75,0.0327 24.5,36.60481 c 13.475,20.13264 24.85986,37.21793 25.29969,37.9673 0.67277,1.14624 -15.07686,1.36249 -99.23061,1.36249 H 240.03878 Z M 423,807.49337 c 0,-0.2114 -8.23474,-12.6989 -18.29943,-27.75 L 386.40114,752.37774 339.70057,752.11785 293,751.85796 v -9.49011 -9.49011 h 32.49473 32.49473 l 9.00527,-17.98948 c 4.9529,-9.89421 9.00527,-18.21921 9.00527,-18.5 0,-0.28078 -18.675,-0.51052 -41.5,-0.51052 H 293 v -10 -10 l 46.75,-0.009 46.75,-0.009 17.5,-26.14641 c 9.625,-14.38053 17.85986,-26.75151 18.29969,-27.49109 0.66746,-1.12215 -14.58639,-1.3445 -92.25,-1.3445 H 237 v 93.5 93.5 h 93 c 51.15,0 93,-0.17297 93,-0.38437 z M 241,713.87774 v -89 h 87.08333 c 49.50178,0 86.93948,0.37849 86.75,0.87702 C 414.65,626.23713 407.75,636.79585 399.5,649.2186 l -15,22.5868 -48.25,0.0362 -48.25,0.0361 v 13.5 13.5 h 40.33333 c 22.18334,0 40.55127,0.21794 40.81764,0.48431 0.26637,0.26637 -2.69613,6.78914 -6.58333,14.49504 l -7.06764,14.01074 -33.75,0.005 -33.75,0.005 v 13.9904 13.99039 l 48.19602,0.25961 48.19602,0.2596 15.30398,22.79054 c 8.41719,12.5348 15.30398,22.9973 15.30398,23.25 0,0.2527 -39.15,0.45946 -87,0.45946 h -87 z m 207.24915,103.50148 -4.25084,-5.38689 20.9167,-31.30729 20.9167,-31.3073 -5.16585,-0.6511 c -2.84122,-0.35811 -9.48858,-0.69561 -14.77189,-0.75 l -9.60604,-0.0989 -4.14396,-5.54121 L 448,736.79532 v -60.95879 -60.95879 h 101 c 90.7999,0 101,0.15741 101,1.55864 0,0.85725 1.40809,3.31082 3.12909,5.45237 1.87788,2.33677 2.93698,4.62833 2.64866,5.73086 -0.26423,1.01043 -9.55102,15.43186 -20.6373,32.04763 l -20.15689,30.2105 h 15.50822 c 12.38758,0 15.50822,0.2729 15.50822,1.3562 0,0.74591 1.575,3.41891 3.5,5.94001 l 3.5,4.58381 v 60.55999 60.55999 l -100.25,-0.0558 -100.25,-0.0558 z M 640,751.87774 v -56 H 574.5 509 v -9.99021 -9.99021 l 47.18219,-0.25979 47.18219,-0.25979 18.33129,-27.25 18.33129,-27.25 H 546.51348 453 v 56 56 h 65.81216 65.81216 l -0.0622,9.25 -0.0622,9.25 -46.98079,0.5 -46.9808,0.5 -18.21644,27 c -10.01904,14.85 -18.24018,27.3375 -18.2692,27.75 -0.029,0.4125 41.79731,0.75 92.94731,0.75 h 93 z M 462,802.3546 c 0,-0.7041 7.98486,-12.73362 20.72753,-31.22686 l 10.50793,-15.25 H 541.11773 589 v -14 -14 H 523.5 458 v -51.5 -51.5 h 86.5 c 55.86547,0 86.5,0.34732 86.5,0.98071 0,0.53938 -2.16479,4.25188 -4.81065,8.25 -2.64586,3.99811 -9.28336,14.12456 -14.75,22.50323 l -9.93935,15.23394 -48.25,0.0161 -48.25,0.0161 v 13.49276 13.49276 l 65.25,0.25724 65.25,0.25724 0.259,51.75 0.259,51.75 h -87.009 c -47.85495,0 -87.009,-0.23541 -87.009,-0.52314 z m 581,13.33888 c -4.125,-3.92171 -11.5561,-10.99708 -16.5136,-15.72306 -4.9575,-4.72597 -12.8356,-12.19268 -17.5068,-16.59268 -22.0297,-20.75069 -30.66254,-29.26064 -34.6524,-34.15911 L 970,743.906 v -66.51413 c 0,-36.58277 0.22043,-66.51413 0.48984,-66.51413 1.12786,0 66.51016,44.1184 66.51016,44.87946 0,0.45811 1.575,2.89565 3.5,5.41675 l 3.5,4.58381 v 29.46909 29.4691 l 11.6216,9.6337 c 6.3918,5.29854 12.0773,9.48179 12.6343,9.29613 0.557,-0.18567 8.1523,-5.92738 16.8784,-12.75936 L 1101,718.44464 v -31.77596 -31.77596 l 32.9888,-22.00749 c 18.1438,-12.10412 33.2188,-22.00749 33.5,-22.00749 0.2811,0 0.5112,0.51615 0.5112,1.14701 0,0.63085 1.575,3.06909 3.5,5.41829 l 3.5,4.27129 -0.028,66.83171 -0.028,66.8317 -12.5574,11 c -6.9065,6.05 -24.1063,21.21656 -38.2218,33.70347 l -25.6645,22.70347 -24,0.0196 -24,0.0196 z m 54.3142,-15.95856 c 5.0522,-4.47856 19.5358,-17.23655 32.1858,-28.35111 12.65,-11.11455 25.1431,-22.18778 27.7625,-24.60717 l 4.7626,-4.3989 0.2374,-60.25026 c 0.1306,-33.13765 -0.1037,-60.25015 -0.5206,-60.25 -0.417,1.4e-4 -13.017,8.21276 -28,18.25026 l -27.2419,18.25 0.1864,31.0439 c 0.1025,17.07415 -0.1225,31.50001 -0.5,32.05746 -0.3775,0.55746 -9.1732,7.61619 -19.546,15.68607 -16.3209,12.6975 -19.0914,14.50694 -20.5823,13.44254 -0.9476,-0.67649 -9.2228,-7.52997 -18.3894,-15.22997 l -16.6666,-14 v -31.61057 l -10e-4,-31.61057 -27.75,-18.65036 -27.75,-18.65035 -0.27627,59.26092 c -0.15195,32.59351 -0.0126,60.16093 0.30971,61.26093 0.32229,1.1 6.29661,7.29622 13.27627,13.76938 6.97966,6.47316 22.36529,20.95838 34.19029,32.18937 l 21.5,20.41998 21.8142,0.0606 21.8142,0.0606 z M 1042.5,799.16783 c -2.2,-2.01068 -17.1625,-16.01867 -33.25,-31.12885 L 980,740.56593 v -55.90311 c 0,-44.45236 0.25604,-55.75082 1.25,-55.15962 0.6875,0.40893 11.2625,7.48657 23.5,15.7281 l 22.25,14.9846 0.014,31.58092 0.014,31.58092 18.5418,15.5 c 10.1981,8.525 19.321,16.05372 20.2732,16.73048 1.4912,1.05987 3.2512,0.0549 12.6943,-7.24862 6.0297,-4.6635 15.782,-12.19221 21.6718,-16.73047 l 10.7088,-8.25139 0.041,-31.622 0.041,-31.62199 22.25,-14.94527 c 12.2375,-8.2199 22.8125,-15.27906 23.5,-15.68702 0.9941,-0.58989 1.2434,10.68422 1.2178,55.06726 l -0.032,55.80902 -12.5103,11 c -6.8806,6.05 -15.5943,13.7 -19.3638,17 -3.7694,3.3 -14.1051,12.4125 -22.9682,20.25 l -16.1147,14.25 -20.2393,-0.0271 -20.2393,-0.0271 z m 359.8059,18.70991 c -2.053,-2.75 -4.0868,-5 -4.5194,-5 -0.4326,0 -0.7865,-45.27314 -0.7865,-100.60699 0,-87.39271 0.1901,-100.53404 1.4474,-100.05157 3.0057,1.1534 66.5526,43.6258 66.5526,44.4813 0,0.49269 1.5706,2.87163 3.4903,5.28653 l 3.4903,4.39073 0.01,39.75 0.01,39.75 h 32.4094 32.4094 l 12.7686,19.25 c 25.8719,39.00561 37.412,56.64657 37.412,57.19138 0,0.30724 -40.7163,0.55862 -90.4806,0.55862 h -90.4806 z m 167.9786,-11.25 c -1.1462,-1.49191 -23.8108,-36.00231 -30.8395,-46.95782 l -4.945,-7.70782 -37.5,-0.29218 -37.5,-0.29218 -0.2864,-47 -0.2864,-47 -25.6119,-17 c -14.0865,-9.35 -26.6701,-17.57687 -27.9636,-18.28194 L 1403,620.81387 v 93.53193 93.53194 h 84.1224 c 67.1435,0 83.9287,-0.2523 83.1621,-1.25 z M 1407,715.81872 c 0,-69.36578 0.254,-86.91221 1.25,-86.33669 0.6875,0.39727 10.025,6.57981 20.75,13.73896 10.725,7.15915 20.9435,13.94816 22.7077,15.08669 l 3.2076,2.07006 0.042,47.75 0.043,47.75 h 38.3473 38.3473 l 15.6263,23.5 15.6262,23.5 H 1484.9735 1407 Z M 267.94194,553.66721 c -1.80875,-2.35921 -3.8878,-4.79066 -4.62009,-5.40322 -1.09557,-0.91644 -1.28631,-18.98735 -1.07665,-102 l 0.2548,-100.88625 41.9138,-0.2611 41.91381,-0.26111 11.76513,9.01111 c 6.47082,4.9561 12.04047,9.0111 12.37699,9.0111 0.33651,0 5.97514,-4.05 12.53027,-9 l 11.91842,-9 h 42.04079 c 35.69746,0 42.04079,0.21477 42.04079,1.4234 0,0.78288 1.575,3.48677 3.5,6.00866 l 3.5,4.58525 V 457.4117 557.92836 l -32.89484,-22.04034 c -18.67872,-12.5152 -33.64448,-23.22231 -34.62945,-24.77531 -0.95404,-1.50423 -2.79618,-3.87918 -4.09364,-5.27766 l -2.35902,-2.54269 -0.29666,-39.95731 -0.29667,-39.95731 -0.0802,45.5 -0.0802,45.5 -32.38467,21.77915 -32.38467,21.77916 -2.33261,-2.77916 c -1.28294,-1.52853 -3.42044,-4.06292 -4.75,-5.63198 C 337.07691,546.76284 337,546.15469 337,530.40864 v -16.26345 l -30.25,20.19925 c -16.6375,11.10959 -31.43562,20.96718 -32.88471,21.90575 -2.62956,1.70316 -2.64113,1.69811 -5.92335,-2.58298 z M 296.47029,519.31676 324,500.75578 v -46.93902 -46.93902 h 9.5 9.5 v 65.49836 65.49835 l 28,-18.67404 28,-18.67405 v -46.82431 -46.82431 h 9.5 9.5 l 0.0448,47.25 0.0448,47.25 27.21995,18.25 c 14.97096,10.0375 27.51098,18.25 27.8667,18.25 0.35571,0 0.496,-0.7875 0.31175,-1.75 -0.18426,-0.9625 -0.36944,-42.8125 -0.41152,-93 L 473,351.87774 h -38.75751 -38.75751 l -12.43333,9.42092 -12.43333,9.42092 -12.24668,-9.42092 -12.24667,-9.42092 H 307.06248 268 v 93 c 0,51.15 0.21163,93 0.47029,93 0.25866,0 12.85866,-8.35244 28,-18.56098 z M 272,442.87774 v -87 h 35.98794 35.98793 l 12.92657,10 c 7.10961,5.5 13.27233,10 13.69493,10 0.4226,0 6.67878,-4.5 13.90263,-10 l 13.13427,-10 H 433.31714 469 v 87 c 0,47.85 -0.22907,87 -0.50904,87 -0.67209,0 -13.55905,-8.52314 -31.49096,-20.8274 l -14.5,-9.9494 -0.2596,-48.1116 -0.25961,-48.1116 H 407.9904 394 l -0.0364,48.25 -0.0364,48.25 -22.56082,15 c -12.40846,8.25 -22.96709,15.15 -23.46363,15.33333 -0.5311,0.1961 -0.9028,-25.84538 -0.9028,-63.25 V 402.87774 H 333.5 320 v 47.80034 47.80035 l -23.28249,15.69965 c -12.80537,8.63482 -23.60537,15.69966 -24,15.69966 -0.39463,0 -0.71751,-39.15 -0.71751,-87 z m 64.74918,4.81797 c -0.15919,-12.27488 -0.28963,-2.51797 -0.28986,21.68203 -2.3e-4,24.2 0.13002,34.24309 0.28945,22.31797 0.15942,-11.92511 0.15961,-31.72511 4.1e-4,-44 z m 625.11665,88.86185 c -25.9472,-17.37226 -32.46397,-22.20139 -36.25,-26.86237 L 921,504.01263 l 0.0217,-58.31744 0.0217,-58.31745 33.1145,-22 c 33.23678,-22.08124 35.63727,-23.59567 34.51005,-21.77178 -0.33574,0.54323 1.17663,3.38288 3.3608,6.31034 L 996,355.23895 v 101.3194 c 0,80.42627 -0.25776,101.30492 -1.25,101.24921 -0.6875,-0.0386 -15.48538,-9.60109 -32.88417,-21.25 z M 983,445.81872 c 0,-74.17802 -0.25362,-92.9078 -1.25,-92.31374 -0.6875,0.4099 -13.2875,8.76555 -28,18.56812 l -26.75,17.82285 0.0275,56.24089 0.0275,56.2409 27.22248,18.18262 c 14.97237,10.00044 27.55999,18.21294 27.97249,18.25 0.4125,0.0371 0.75,-41.80918 0.75,-92.99164 z m -16,78.38971 C 961.775,520.5877 951.5375,513.59 944.25,508.65799 l -13.25,-8.9673 0.0244,-53.65647 0.0244,-53.65648 23.04456,-15.5 c 12.6745,-8.525 23.45382,-15.64677 23.95403,-15.82615 0.54124,-0.19409 0.92239,34.12017 0.94137,84.75 0.0254,67.80515 -0.22396,85.0674 -1.22843,85.03307 -0.69318,-0.0237 -5.53533,-3.0055 -10.76033,-6.62623 z m -466.5,24.66931 c -2.01869,-2.75 -4.08201,-5 -4.58517,-5 -0.54704,0 -0.91483,-40.40421 -0.91483,-100.5 0,-63.96228 0.35113,-100.5 0.96582,-100.5 1.72957,0 64.49023,42.11798 66.03418,44.31481 0.825,1.17386 2.9625,4.06214 4.75,6.41839 l 3.25,4.28411 v 39.49134 39.49135 h 28 28 l 0.0442,-45.25 0.0442,-45.25 32.60063,-21.5 c 17.93034,-11.825 33.21046,-21.6455 33.95582,-21.82332 0.74537,-0.17783 1.35958,0.27217 1.36492,1 0.005,0.72782 1.58033,3.29915 3.5,5.71405 L 701,354.1592 v 99.85927 99.85927 H 602.58517 504.17034 Z M 688,445.29441 c 0,-51.47084 -0.34921,-93.43334 -0.77603,-93.25 -0.42682,0.18333 -13.00824,8.43333 -27.95872,18.33333 l -27.18269,18 -0.0413,46.75 -0.0413,46.75 H 594.50989 557.01978 L 556.75989,435.24415 556.5,388.61056 529.12606,370.24415 c -15.05567,-10.10152 -27.54317,-18.36641 -27.75,-18.36641 -0.20683,0 -0.37606,42.075 -0.37606,93.5 v 93.5 h 93.5 93.5 z m -183,2.08333 c 0,-48.125 0.30207,-87.5 0.67126,-87.5 0.36919,0 1.38169,0.61248 2.25,1.36106 0.86831,0.74858 11.14124,7.74556 22.82874,15.54883 L 552,390.97541 v 47.95116 47.95117 h 42 42 l 0.0271,-47.75 0.0271,-47.75 23.22289,-15.5 c 12.77258,-8.525 23.56038,-15.65 23.97288,-15.83333 0.4125,-0.18334 0.75,39.07916 0.75,87.25 v 87.58333 H 594.5 505 Z m 203.22435,100.97088 -4.27564,-5.4175 21.03348,-31.52669 c 11.56842,-17.33968 20.69246,-31.57452 20.27565,-31.63299 -0.41681,-0.0585 -1.43284,-0.20649 -2.25784,-0.32895 -0.825,-0.12246 -7.125,-0.30134 -14,-0.39751 l -12.5,-0.17486 -4.25,-5.50296 -4.25,-5.50297 v -60.99322 -60.99323 h 101 c 84.35139,0 101,0.22355 101,1.3562 0,0.74591 1.57235,3.41544 3.49411,5.93229 l 3.49411,4.5761 -20.82546,31.31771 -20.82547,31.3177 15.33135,0.27539 C 900.90389,420.83699 906,421.29105 906,422.01916 c 0,0.59984 1.575,3.23621 3.5,5.85858 l 3.5,4.76795 v 60.61603 60.61602 l -100.25,-0.0558 -100.25,-0.0558 z M 900,482.88498 v -55.99276 l -65.25,-0.25724 -65.25,-0.25724 -0.28609,-9.74019 -0.2861,-9.74018 47.18651,-0.25982 47.18651,-0.25981 17.79586,-26.5 c 9.78773,-14.575 17.82005,-26.8375 17.84959,-27.25 0.0295,-0.4125 -41.79628,-0.75 -92.94628,-0.75 h -93 v 56 56 l 65.75,-5.3e-4 65.75,-5.3e-4 v 9.49774 9.49774 l -47,0.0461 -47,0.0461 -18.69571,27.9567 -18.69571,27.95668 H 806.55429 900 Z m -177.61013,49.41915 c 0.54586,-1.42249 4.3698,-7.0999 24.19773,-35.92639 l 6.19053,-9 48.11094,-0.2596 L 849,486.85853 v -13.99039 -13.9904 H 783.5 718 v -51.5 -51.5 h 86.97349 86.97349 l -7.22349,11.22418 c -3.97292,6.17329 -10.85978,16.63579 -15.30412,23.25 l -8.08064,12.02582 -48.16936,0.2596 L 765,402.89695 v 13.49039 13.4904 h 65.5 65.5 v 52 52 h -87.10699 c -78.82851,0 -87.0496,-0.14955 -86.50314,-1.57361 z M 1007.25,548.36716 1003,542.86419 v -98.49322 -98.49323 h 101 c 59.4249,0 100.8971,0.37074 100.75,0.90066 -0.1375,0.49536 1.4398,3.13492 3.5051,5.86569 l 3.7552,4.96504 -21.7552,32.6309 -21.7551,32.63089 -45.75,0.003 -45.75,0.004 v 27 27 h 41.8121 41.812 l 25.7014,38.5 25.7014,38.5 -100.2635,-0.004 -100.2634,-0.004 z m 187.0497,-10.84024 c -0.4398,-0.74295 -8.8621,-13.56795 -18.7162,-28.5 L 1157.667,481.87774 H 1110.8335 1064 v -37 -37 h 46.8712 46.8712 l 18.1288,-27.38729 c 9.9708,-15.06301 18.1288,-27.66301 18.1288,-28 0,-0.33699 -41.85,-0.61271 -93,-0.61271 h -93 v 93.5 93.5 h 93.5497 c 78.2916,0 93.4192,-0.22032 92.75,-1.35082 z M 1013,444.87774 v -89 h 87.0319 87.032 l -1.282,2.28526 c -0.705,1.2569 -7.8069,12.05116 -15.7819,23.98724 l -14.5,21.70198 -47.75,0.0128 -47.75,0.0127 v 41.5 41.5 l 47.75,0.0314 47.75,0.0314 1.5621,2.21857 c 2.5202,3.57944 28.4937,42.09914 29.3104,43.46858 0.5941,0.99614 -16.9353,1.25 -86.3135,1.25 H 1013 Z M 464.31278,284.12265 c -2.09703,-2.6097 -4.15028,-4.89491 -4.56278,-5.07824 -0.4125,-0.18334 -0.75,-45.97084 -0.75,-101.75 V 75.87774 h 42.1783 42.1783 l 11.95806,9.15887 c 8.35835,6.401788 12.34303,8.885274 13.23691,8.25 0.70337,-0.499878 6.09853,-4.62137 11.98926,-9.15887 l 10.7104,-8.25 h 42.37439 c 36.97034,0 42.37438,0.191001 42.37438,1.497685 0,0.823727 1.575,3.689971 3.5,6.36943 L 683,88.6166 V 188.76565 288.9147 l -32.80858,-21.92407 c -28.08165,-18.76535 -33.41082,-22.72174 -36.9886,-27.46049 l -4.18003,-5.5364 -0.27306,-40.308 -0.27306,-40.308 -0.25663,46 -0.25663,46 -32.45307,21.70324 -32.45308,21.70324 -3.77863,-4.70324 c -2.07825,-2.58678 -4.11613,-4.85324 -4.52863,-5.03657 -0.4125,-0.18334 -0.85789,-28.53334 -0.98977,-63 -0.22166,-57.93659 -0.26022,-59.19459 -0.51076,-16.66667 l -0.271,46 -32.42646,21.74491 -32.42645,21.74491 z m 28.8581,-33.90578 c 14.48101,-9.70235 26.45809,-17.73927 26.61571,-17.85981 0.15763,-0.12055 0.26255,-21.42771 0.23316,-47.34925 l -0.0534,-47.13007 H 529.98315 540 v 65 c 0,35.75 0.23238,65 0.51641,65 0.28402,0 12.65902,-8.14627 27.5,-18.10282 L 595,231.67211 v -46.89719 -46.89718 h 9.5 9.5 v 46.86043 46.86043 l 26.63189,17.88957 c 14.64754,9.83926 27.24754,18.24943 28,18.68926 1.15343,0.6742 1.36811,-13.87993 1.36811,-92.75 V 81.87774 h -38.4408 -38.44081 l -12.48979,9.5 c -6.86939,5.225 -12.88656,9.5 -13.37149,9.5 -0.48492,0 -6.42713,-4.275 -13.2049,-9.5 l -12.32322,-9.5 H 503.36449 465 v 93.55902 c 0,56.7589 0.36221,93.33515 0.92088,92.98988 0.50648,-0.31302 12.76898,-8.50742 27.25,-18.20977 z M 469,173.87774 v -87 l 35.75,0.0043 35.75,0.0043 5.5,4.147612 c 3.025,2.281187 8.98999,6.837403 13.25553,10.124928 l 7.75553,5.97731 3.74447,-2.5753 c 2.05946,-1.41641 8.17126,-5.97456 13.58178,-10.129223 l 9.83731,-7.553927 H 630.08731 666 v 87 c 0,47.85 -0.26419,87 -0.58708,87 -0.63728,0 -14.76207,-9.3937 -34.16292,-22.72007 L 619,229.7432 v -47.93273 -47.93273 h -14 -14 v 47.91398 47.91398 l -22.73414,15.33602 c -12.50378,8.43481 -23.07878,15.48602 -23.5,15.66935 C 544.34464,260.89441 544,232.43191 544,197.46107 v -63.58333 h -13.9904 -13.99039 l -0.25961,48.10522 -0.2596,48.10522 -22.75295,15.39478 c -12.51412,8.46713 -22.97662,15.39478 -23.25,15.39478 -0.27338,0 -0.49705,-39.15 -0.49705,-87 z m 438.48377,109.97789 c -2.00976,-2.73784 -4.06578,-4.97789 -4.56894,-4.97789 -0.5471,0 -0.91483,-40.79961 -0.91483,-101.5 v -101.5 h 42.3367 42.3367 l 10.735,8.25 c 5.9043,4.5375 11.2911,8.643043 11.9708,9.123429 0.8337,0.589278 5.1592,-2.094684 13.2957,-8.25 l 12.0599,-9.123429 h 42.1326 c 30.6657,0 42.1326,0.307699 42.1326,1.13057 0,0.621814 1.575,3.322855 3.5,6.002315 l 3.5,4.871744 V 188.28795 288.69353 l -32.3295,-21.65789 c -26.6058,-17.8235 -33.1544,-22.67093 -36.9886,-27.37981 l -4.6592,-5.72192 -0.273,-40.27808 -0.273,-40.27809 -0.2384,46.08779 -0.2383,46.08778 -32.4862,21.6547 -32.48624,21.6547 -3.72723,-4.99248 c -2.04998,-2.74587 -4.08119,-4.99249 -4.51378,-4.99249 -0.4326,0 -0.78655,-7.6687 -0.78655,-17.04155 v -17.04155 l -30.25,20.29404 c -16.6375,11.16173 -31.45648,21.07047 -32.93107,22.01944 l -2.68106,1.72539 z m 3.43749,-16.34133 c 0.86831,-0.7499 13.16624,-9.11055 27.32874,-18.57923 L 964,231.71929 v -46.92078 -46.92077 h 9.5 9.5 v 65.50278 65.50279 l 27.9564,-18.75279 c 15.376,-10.31403 27.9227,-19.20278 27.8815,-19.75278 -0.041,-0.55 -0.022,-21.5875 0.044,-46.75 l 0.1181,-45.75 h 9.5 9.5 l 0.047,47.25 0.047,47.25 27.4534,18.26936 L 1113,268.91645 V 175.3971 81.87774 h -38.1437 -38.1438 l -12.7125,9.5 c -6.9919,5.225 -13.0418,9.5 -13.4443,9.5 -0.4025,0 -6.289,-4.275 -13.0813,-9.5 l -12.34943,-9.5 H 946.56248 908 v 93.5 c 0,51.425 0.30207,93.5 0.67126,93.5 0.36919,0 1.38169,-0.61355 2.25,-1.36344 z M 912,173.87774 v -87 h 36.03673 36.03672 l 12.97545,10 c 7.1365,5.5 13.2185,10 13.5155,10 0.2971,0 6.5244,-4.5 13.8385,-10 l 13.2985,-10 H 1073.3507 1109 v 87 c 0,47.85 -0.256,87 -0.5688,87 -0.5058,0 -31.1859,-20.65113 -42.1812,-28.39268 l -4.25,-2.99232 v -47.8075 -47.8075 h -13.9904 -13.9904 l -0.2596,48.12321 -0.2596,48.12321 -22.5,15.32678 c -12.375,8.42973 -22.8375,15.34929 -23.25,15.37679 -0.4125,0.0275 -0.75,-28.52499 -0.75,-63.44999 v -63.5 H 973.5 960 v 47.46846 47.46845 l -5.25,3.86428 c -6.72167,4.94749 -41.54228,28.19881 -42.22987,28.19881 -0.28607,0 -0.52013,-39.15 -0.52013,-87 z m 64.749,1.75 c -0.15909,-12.2375 -0.28926,-2.225 -0.28926,22.25 0,24.475 0.13017,34.4875 0.28926,22.25 0.15909,-12.2375 0.15909,-32.2625 0,-44.5 z m 374.7732,108.28023 c -2.0309,-2.76663 -3.9917,-5.03023 -4.3574,-5.03023 -0.4497,0 -0.6009,-183.38286 -0.1695,-205.74462 0,-0.134541 29.2215,19.286138 64.931,43.15707 35.7094,23.87092 65.1844,43.1435 65.5,42.82795 0.3155,-0.31555 0.5737,-9.94521 0.5737,-21.39923 v -20.82549 l 31.7115,-21.156759 c 17.4413,-11.636216 32.4543,-21.351022 33.3622,-21.588457 0.9795,-0.256126 1.889,0.312822 2.2363,1.398918 0.322,1.00684 1.9611,3.635065 3.6425,5.8405 l 3.057,4.009883 -0.2547,101.731555 -0.2548,101.73155 -65,-43.4721 -65,-43.4721 -0.2894,21.73067 -0.2895,21.73066 -30.0733,20 c -16.5404,11 -31.3243,20.8011 -32.8532,21.78023 l -2.7799,1.78022 z m 29.3293,-33.53023 27.0167,-18 0.066,-24.75 c 0.036,-13.6125 0.3293,-24.75 0.6513,-24.75 0.3219,0 29.614,19.38291 65.0935,43.07313 35.4795,23.69023 64.6934,42.88788 64.9198,42.66146 0.2265,-0.22642 0.2969,-42.09582 0.1565,-93.04312 L 1538.5,82.937762 1511,101.43104 l -27.5,18.49329 -0.5,24.9572 -0.5,24.9572 -50.5817,-33.7305 c -27.82,-18.55177 -57.1825,-38.119694 -65.25,-43.484276 L 1352,82.870168 v 93.087122 c 0,56.04392 0.3651,92.95447 0.9174,92.75378 0.5045,-0.18333 13.0749,-8.43333 27.9341,-18.33333 z M 1356,176.54441 c 0,-46.38334 0.2583,-84.591593 0.5739,-84.90724 0.3156,-0.315646 29.8354,18.95935 65.5994,42.83333 35.7641,23.87398 65.0933,43.40761 65.1761,43.40806 0.083,4.5e-4 0.015,-12.33426 -0.1501,-27.41047 l -0.3006,-27.4113 3.3006,-2.44713 c 4.9029,-3.63498 43.8335,-29.73192 44.3533,-29.73192 0.2461,0 0.4474,38.25 0.4474,85 0,46.75 -0.3407,85 -0.7571,85 -0.4164,0 -29.7789,-19.35955 -65.25,-43.02122 l -64.4929,-43.02123 -0.5,27.51365 -0.5,27.51364 -22.9712,15.50758 c -12.6341,8.52917 -23.3216,15.50758 -23.75,15.50758 -0.4283,0 -0.7788,-37.95 -0.7788,-84.33333 z M 696.10449,282.39991 692,276.96355 V 176.42065 75.87774 h 98.28791 98.28791 l 4.21693,6.413956 4.21693,6.413956 -0.25484,99.626168 -0.25484,99.62616 -33.07482,-21.88864 c -23.94255,-15.84498 -33.65939,-22.82782 -35.192,-25.29012 -1.16445,-1.87081 -3.03811,-4.18015 -4.16369,-5.13185 -1.77396,-1.49993 -2.01474,-2.73198 -1.808,-9.25134 l 0.23851,-7.52096 -28.25,0.001 -28.25,0.002 v 12.98746 12.98745 l -4.0926,2.58354 c -2.25093,1.42095 -16.30296,10.69037 -31.22674,20.59871 -14.92377,9.90834 -27.88508,18.41706 -28.80291,18.90827 -1.32399,0.70857 -2.5168,-0.23011 -5.77326,-4.54326 z M 726.25,249.48917 753,231.78053 v -13.9514 -13.95139 h 37.5 37.5 v 13.98255 13.98256 l 26.68846,17.76744 c 14.67865,9.7721 27.27865,18.12731 28,18.56714 1.07841,0.65754 1.31154,-15.82934 1.31154,-92.75 V 81.87774 H 790.5 697 v 93.62244 c 0,74.74458 0.25205,93.42839 1.25,92.66004 0.6875,-0.52932 13.2875,-8.93129 28,-18.67105 z M 701.26508,173.22894 701.5,86.37774 790.75,86.122366 880,85.866991 v 87.005379 c 0,47.85295 -0.34752,87.00537 -0.77227,87.00537 -0.42475,0 -11.11225,-6.89819 -23.75,-15.3293 L 832.5,229.21913 l -0.27605,-15.17069 -0.27604,-15.1707 H 790.47395 749 l -0.046,15.25 -0.0461,15.25 -22.43451,14.77392 c -12.33898,8.12566 -23.11147,15.0337 -23.93887,15.3512 -1.33314,0.51158 -1.47763,-9.30801 -1.26945,-86.27392 z M 832,147.37774 v -13.5 H 790.5 749 v 13.5 13.5 h 41.5 41.5 z m -78.33333,8.83333 C 753.3,155.84441 753,151.56941 753,146.71107 v -8.83333 h 37.5 37.5 v 9.5 9.5 h -36.83333 c -20.25834,0 -37.13334,-0.3 -37.5,-0.66667 z M 1140,282.87774 c -1.925,-2.72528 -3.8375,-4.96517 -4.25,-4.97753 -0.4125,-0.0124 -0.75,-45.47247 -0.75,-101.02247 v -101 h 99 c 72.1948,0 99,0.302174 99,1.116023 0,0.613813 1.5772,3.264558 3.5048,5.890546 l 3.5048,4.774523 -0.2548,100.083868 -0.2548,100.08387 -32.1978,-21.37146 C 1268.0788,240.42044 1266,238.40398 1266,226.39187 v -7.51413 h -28.5 -28.5 v 13.02058 13.02059 l -32.5427,21.47941 c -17.8985,11.81368 -32.636,21.46931 -32.75,21.45695 -0.114,-0.0124 -1.7823,-2.25225 -3.7073,-4.97753 z m 55.7775,-64.82726 0.2774,-14.17274 H 1233.5275 1271 v 13.83849 13.8385 l 28,18.66345 28,18.66345 V 175.37968 81.87774 h -93.5 -93.5 v 92.83333 c 0,51.05834 0.2326,93.06592 0.5169,93.35019 0.2842,0.28428 12.7717,-7.66299 27.75,-17.66059 L 1195.5,232.22321 Z M 1145,172.96107 V 85.87774 h 89 89 v 87 c 0,47.85 -0.3288,87 -0.7306,87 -0.4019,0 -10.9713,-6.8625 -23.4877,-15.25 l -22.7569,-15.25 -0.012,-15.25 -0.013,-15.25 h -42 -42 v 15.25 15.25 l -22.6304,15 c -12.4466,8.25 -23.0207,15.15 -23.498,15.33333 -0.4862,0.18678 -0.8677,-37.95539 -0.8677,-86.75 z m 131,-25.58333 v -13.5 h -42 -42 v 13.5 13.5 h 42 42 z m -79.3333,8.83333 c -0.3667,-0.36666 -0.6667,-4.64166 -0.6667,-9.5 v -8.83333 h 37.5 37.5 v 9.5 9.5 h -36.8333 c -20.2584,0 -37.1334,-0.3 -37.5,-0.66667 z M 19.113846,281.56195 c -1.127101,-1.82369 -2.963802,-4.14343 -4.08156,-5.15499 C 13.015349,274.58166 13,273.82121 13,175.72275 V 76.87774 h 101.05902 c 55.58246,0 100.83706,0.359129 100.56578,0.798064 -0.27127,0.438936 1.25658,3.01624 3.39524,5.727344 3.83294,4.858877 3.86413,4.96727 2.18422,7.589158 C 219.26692,92.455238 209.5,107.19154 198.5,123.73964 l -20,30.08745 -45.75,0.0253 -45.75,0.0253 v 27 27 h 41.82364 41.82363 l 24.65752,36.86909 c 13.56163,20.278 24.93914,37.603 25.28335,38.5 0.57606,1.50118 -7.3306,1.63091 -99.39959,1.63091 H 21.163119 Z M 204,268.29503 c 0,-0.32049 -8.16527,-12.92049 -18.14506,-28 L 167.70989,212.87774 H 120.85494 74 v -37 -37 h 46.86722 46.86721 l 17.88279,-27.14661 c 9.83553,-14.930629 18.24264,-27.755629 18.68247,-28.499996 0.67,-1.133913 -14.37134,-1.353394 -92.75,-1.353394 H 18 v 93.5 93.5 h 93 c 51.15,0 93,-0.26222 93,-0.58271 z M 23,175.87774 v -89 h 87.0982 87.0982 l -1.8482,2.883345 C 194.33169,91.346925 187.2,102.13632 179.5,113.73752 l -14,21.09309 -47.75,0.0236 -47.75,0.0236 v 41.5 41.5 l 47.75,0.0314 47.75,0.0314 1.57697,2.21857 c 2.55198,3.59027 28.52613,42.10188 29.31738,43.46858 0.57661,0.99597 -16.96882,1.25 -86.33533,1.25 H 23 Z m 211,104 c -1.925,-2.72528 -3.8375,-4.96517 -4.25,-4.97753 C 229.3375,274.88785 229,229.42705 229,173.8762 V 72.874669 l 33.47215,22.251536 c 18.40969,12.238345 33.48469,22.607955 33.5,23.043575 0.0337,0.95984 6.32225,9.6132 7.02785,9.67073 0.275,0.0224 0.5,-2.32252 0.5,-5.211 v -5.25177 L 336,95.656332 c 17.875,-11.946774 33.0625,-21.734274 33.75,-21.75 0.6875,-0.01573 1.25,0.417514 1.25,0.962755 0,0.545241 1.575,3.054709 3.5,5.576596 l 3.5,4.58525 v 16.286857 16.28685 l 33.51934,-22.394827 c 28.3213,-18.921924 33.62391,-22.118575 34.1936,-20.613448 0.37084,0.979756 2.16213,3.860118 3.98066,6.400805 L 453,85.6166 v 99.63057 99.63057 h -41.78761 -41.78761 l -11.92478,-9 c -6.55863,-4.95 -12.16671,-8.99763 -12.46239,-8.99474 -0.29569,0.003 -5.93761,4.05053 -12.53761,8.99474 l -12,8.98947 -41.5,-0.0172 -41.5,-0.0172 z m 90.59015,-20.47076 12.45136,-9.47076 12.22924,9.46249 12.22925,9.46249 39.25,0.008 39.25,0.009 v -93.04969 c 0,-77.745291 -0.22156,-92.918161 -1.34708,-92.25 -0.74089,0.439829 -13.34089,8.864101 -28,18.7206 L 384,120.21957 v 46.82908 46.82909 h -9.49281 -9.49281 L 364.75719,148.51434 364.5,83.15094 336.75,101.68592 309,120.22089 v 46.82842 46.82843 h -9.5 -9.5 v -46.8897 -46.8897 L 263.25,102.18798 C 248.5375,92.337276 235.9375,83.936084 235.25,83.51866 234.25352,82.913633 234,101.6334 234,175.81872 v 93.05902 h 39.0694 39.0694 z m -85.596,3.47076 c -0.003,-1.1 -0.006,-39.35 -0.006,-85 0,-45.65 0.003,-83.922365 0.006,-85.049699 0.005,-1.677799 4.26694,0.817018 23.49052,13.749999 l 23.48467,15.7997 0.0153,47.75 0.0153,47.75 h 13.5 13.5 v -47.44911 -47.44911 l 3.25,-2.4092 c 4.61151,-3.41847 43.84736,-29.69258 44.34076,-29.69258 0.22508,0 0.40924,28.575 0.40924,63.5 v 63.5 h 13.5 13.5 l 0.0355,-47.75 0.0355,-47.75 23.38951,-15.65833 C 424.32472,98.107322 435.10875,91.319822 435.425,91.636072 435.74125,91.952323 436,131.06107 436,178.54441 v 86.33333 h -36.04293 -36.04292 l -13.06135,-10 c -7.18374,-5.5 -13.44048,-10 -13.90387,-10 -0.46339,0 -6.82896,4.4932 -14.14573,9.98489 l -13.3032,9.9849 -35.25,0.0151 c -34.58644,0.0148 -35.25011,-0.0225 -35.25585,-1.98489 z m 64.69884,-58.73097 c -0.25354,-0.97297 -0.47766,-0.41903 -0.49804,1.23097 -0.0204,1.65 0.18706,2.44606 0.46099,1.76903 0.27392,-0.67703 0.29059,-2.02703 0.0371,-3 z m 0.0559,-56.95363 c -0.16269,-10.34847 -0.29603,-2.1654 -0.29634,18.1846 -3.1e-4,20.35 0.13278,28.81693 0.29575,18.8154 0.16297,-10.00152 0.16322,-26.65152 5.6e-4,-37 z" id="path1"></path>
  </g>
</svg></svg></g></g></svg>